/* XPM */
static char *_24e7b2d7b154a9bee03d8a685739176Pc8h6vcMuRn6VdRa[] = {
/* columns rows colors chars-per-pixel */
"48 48 5 1 ",
"  c None",
". c #14182E",
"X c #686F99",
"o c #A3A7C2",
"O c #DFE0E8",
/* pixels */
"               ..................               ",
"               ..................               ",
"               ..................               ",
"            ...oooOOOOOOOOOOOOooo...            ",
"            ...oooOOOOOOOOOOOOooo...            ",
"            ...oooOOOOOOOOOOOOooo...            ",
"         ...oooOOOOOOOOOOOOOOOOOOooo...         ",
"         ...oooOOOOOOOOOOOOOOOOOOooo...         ",
"         ...oooOOOOOOOOOOOOOOOOOOooo...         ",
"         ...oooOOOOOOOOOOOOOOOOOOooo...         ",
"         ...oooOOOOOOOOOOOOOOOOOOooo...         ",
"         ...oooOOOOOOOOOOOOOOOOOOooo...         ",
"         ...oooXXXOOOOOOOOOOOOXXXooo...         ",
"         ...oooXXXOOOOOOOOOOOOXXXooo...         ",
"         ...oooXXXOOOOOOOOOOOOXXXooo...         ",
"         ...XXXooooooooooooooooooXXX...         ",
"         ...XXXooooooooooooooooooXXX...         ",
"         ...XXXooooooooooooooooooXXX...         ",
"         ...XXXooooooOOOOOOooooooXXX...         ",
"         ...XXXooooooOOOOOOooooooXXX...         ",
"         ...XXXooooooOOOOOOooooooXXX...         ",
"         ...XXXooooooooooooooooooXXX...         ",
"         ...XXXooooooooooooooooooXXX...         ",
"         ...XXXooooooooooooooooooXXX...         ",
"            ...XXXooooooooooooXXX...            ",
"            ...XXXooooooooooooXXX...            ",
"            ...XXXooooooooooooXXX...            ",
"         ............XXXXXX............         ",
"         ............XXXXXX............         ",
"         ............XXXXXX............         ",
"      ...OOOOOOXXXXXXOOOOOOXXXXXXOOOOOO...      ",
"      ...OOOOOOXXXXXXOOOOOOXXXXXXOOOOOO...      ",
"      ...OOOOOOXXXXXXOOOOOOXXXXXXOOOOOO...      ",
"   ...OOOooo...ooooooOOOOOOoooooo...oooOOO...   ",
"   ...OOOooo...ooooooOOOOOOoooooo...oooOOO...   ",
"   ...OOOooo...ooooooOOOOOOoooooo...oooOOO...   ",
"   ...OOOOOO...XXXXXXOOOOOOXXXXXX...OOOOOO...   ",
"   ...OOOOOO...XXXXXXOOOOOOXXXXXX...OOOOOO...   ",
"   ...OOOOOO...XXXXXXOOOOOOXXXXXX...OOOOOO...   ",
"      ............oooooooooooo............      ",
"      ............oooooooooooo............      ",
"      ............oooooooooooo............      ",
"            ...XXXXXX......XXXXXX...            ",
"            ...XXXXXX......XXXXXX...            ",
"            ...XXXXXX......XXXXXX...            ",
"               ......      ......               ",
"               ......      ......               ",
"               ......      ......               "
};
