/* XPM */
static char *_3d9ee1e16ea43aec80b6f61b1c4555aAHzHD6Q8uLUtVWkb[] = {
/* columns rows colors chars-per-pixel */
"48 48 6 1 ",
"  c None",
". c #14182E",
"X c #AD2F45",
"o c #686F99",
"O c #A3A7C2",
"+ c #DFE0E8",
/* pixels */
"               ..................               ",
"               ..................               ",
"               ..................               ",
"            ...OOO++++++++++++OOO...            ",
"            ...OOO++++++++++++OOO...            ",
"            ...OOO++++++++++++OOO...            ",
"         ...OOO++++++++++++++++++OOO...         ",
"         ...OOO++++++++++++++++++OOO...         ",
"         ...OOO++++++++++++++++++OOO...         ",
"         ...OOO++++++++++++++++++OOO...         ",
"         ...OOO++++++++++++++++++OOO...         ",
"         ...OOO++++++++++++++++++OOO...         ",
"         ...oooOOO++++++++++++OOOooo...         ",
"         ...oooOOO++++++++++++OOOooo...         ",
"         ...oooOOO++++++++++++OOOooo...         ",
"         ...OOO...OOO++++++OOO...OOO...         ",
"         ...OOO...OOO++++++OOO...OOO...         ",
"         ...OOO...OOO++++++OOO...OOO...         ",
"         ...OOO......OOOOOO......OOO...         ",
"         ...OOO......OOOOOO......OOO...         ",
"         ...OOO......OOOOOO......OOO...         ",
"         ...OOO...XXX++++++XXX...OOO...         ",
"         ...OOO...XXX++++++XXX...OOO...         ",
"         ...OOO...XXX++++++XXX...OOO...         ",
"            ...OOO+++oooooo+++OOO...            ",
"            ...OOO+++oooooo+++OOO...            ",
"            ...OOO+++oooooo+++OOO...            ",
"         ......+++...++++++...+++......         ",
"         ......+++...++++++...+++......         ",
"         ......+++...++++++...+++......         ",
"      ...++++++..................++++++...      ",
"      ...++++++..................++++++...      ",
"      ...++++++..................++++++...      ",
"   ...+++OOO...oooOOO++++++OOOooo...OOO+++...   ",
"   ...+++OOO...oooOOO++++++OOOooo...OOO+++...   ",
"   ...+++OOO...oooOOO++++++OOOooo...OOO+++...   ",
"   ...++++++...OOO+++oooooo+++OOO...++++++...   ",
"   ...++++++...OOO+++oooooo+++OOO...++++++...   ",
"   ...++++++...OOO+++oooooo+++OOO...++++++...   ",
"      ............oooOOOOOOooo............      ",
"      ............oooOOOOOOooo............      ",
"      ............oooOOOOOOooo............      ",
"            ...OOOOOO......OOOOOO...            ",
"            ...OOOOOO......OOOOOO...            ",
"            ...OOOOOO......OOOOOO...            ",
"               ......      ......               ",
"               ......      ......               ",
"               ......      ......               "
};
