/* XPM */
static char *enemy1672399250[] = {
/* columns rows colors chars-per-pixel */
"48 47 167 2 ",
"   c None",
".  c #030102",
"X  c #0D0C0C",
"o  c #0F060C",
"O  c #180712",
"+  c #1D151B",
"@  c #240B1C",
"#  c #21181D",
"$  c #25101E",
"%  c #2F1C29",
"&  c #301829",
"*  c #202220",
"=  c gray16",
"-  c #332931",
";  c #373A38",
":  c #363436",
">  c #441A37",
",  c #4D223F",
"<  c #6B1952",
"1  c #5E3D54",
"2  c #6E335C",
"3  c #623E57",
"4  c #723C63",
"5  c #54474F",
"6  c #595958",
"7  c #67445D",
"8  c #686968",
"9  c #7D6475",
"0  c #747574",
"q  c #861862",
"w  c #992E78",
"e  c #88677D",
"r  c #A33F87",
"t  c #C52693",
"y  c #C82595",
"u  c #CE2B9A",
"i  c #C82B95",
"p  c #D22D9D",
"a  c #D3319E",
"s  c #D633A2",
"d  c #D935A5",
"f  c #D63AA4",
"g  c #DA39A7",
"h  c #DC37A8",
"j  c #DD3AA9",
"k  c #E23DAD",
"l  c #E53FB0",
"z  c #E93FB3",
"x  c #985787",
"c  c #916384",
"v  c #9E7891",
"b  c #AD6898",
"n  c #A86192",
"m  c #BD70A5",
"M  c #C74CA0",
"N  c #CD42A0",
"B  c #DE43AC",
"V  c #DB4BAD",
"C  c #D547A7",
"Z  c #CC5FAD",
"A  c #D051A7",
"S  c #DB50AE",
"D  c #D752AD",
"F  c #DF4EB0",
"G  c #DD55B2",
"H  c #DC58B3",
"J  c #E340AF",
"K  c #E543B2",
"L  c #EA44B5",
"P  c #E54BB4",
"I  c #E94AB6",
"U  c #EE46B8",
"Y  c #E74EB8",
"T  c #ED4BBA",
"R  c #F14EBE",
"E  c #E255B5",
"W  c #ED54BC",
"Q  c #E55CB9",
"!  c #EB5ABD",
"~  c #E656BA",
"^  c #F153BF",
"/  c #F058BF",
"(  c #C765A8",
")  c #D36AAF",
"_  c #CA70AE",
"`  c #D26CB2",
"'  c #DD61B5",
"]  c #CD71B2",
"[  c #D675B8",
"{  c #E264BA",
"}  c #E668BE",
"|  c #EE5DC0",
" . c #F554C2",
".. c #FA56C5",
"X. c #F45BC3",
"o. c #FA59C6",
"O. c #FD56C8",
"+. c #FF5CCB",
"@. c #FF5FD1",
"#. c #EE64C2",
"$. c #E56BC0",
"%. c #EC6BC3",
"&. c #F362C5",
"*. c #F168C7",
"=. c #F665C9",
"-. c #FE63CD",
";. c #F66DCB",
":. c #FA6ACD",
">. c #E770C6",
",. c #EB74C5",
"<. c #E47BC3",
"1. c #EE74C9",
"2. c #E879C4",
"3. c #F572CC",
"4. c #F579CE",
"5. c #F871CD",
"6. c #FF67D3",
"7. c #FE6CD1",
"8. c #F777D1",
"9. c #FE74D3",
"0. c #F57DD0",
"q. c #FC7BD3",
"w. c #FF75D8",
"e. c #FF7CD9",
"r. c #8F908F",
"t. c #AFB1B0",
"y. c #B6B8B7",
"u. c gray73",
"i. c #C483B0",
"p. c #D18DBB",
"a. c #DD88C3",
"s. c #DA9BC8",
"d. c #E681C6",
"f. c #E687C8",
"g. c #E29CCC",
"h. c #E391CA",
"j. c #F483D2",
"k. c #FC84D6",
"l. c #F58DD4",
"z. c #F98CD6",
"x. c #FF84DB",
"c. c #FE8BDA",
"v. c #FE94DD",
"b. c #FE99DE",
"n. c #D5A7C6",
"m. c #CDB7C6",
"M. c #D9BDCF",
"N. c #DEAFD0",
"B. c #DFB6D2",
"V. c #E0AACF",
"C. c #E8A4D1",
"Z. c #F2A4DC",
"A. c #E6B7D8",
"S. c #FF87E0",
"D. c #FF9DE1",
"F. c #FFA3E2",
"G. c #FFAAE4",
"H. c #FFACEC",
"J. c #E5C5DA",
"K. c #E6D2E0",
"L. c #E8E7E7",
"P. c gray93",
"I. c #EEF0EE",
"U. c #F1EFF1",
"Y. c #F5F2F4",
"T. c #F7F9F8",
"R. c #FDFDFE",
/* pixels */
"                                                                                                ",
"                                                                                                ",
"                                                                                                ",
"                                                        E                                       ",
"                              C                       { *.                                      ",
"                              Q %.                    0.X.                                      ",
"                              g e.Q                 V S. .                                      ",
"                              s X.x.V               ! x...          i                           ",
"                                L ;.0.              8.9.O.        H V                           ",
"                                h T x.!   g B k j J c.6.O.      N x.f                           ",
"                                d k 6.x.T 7.e.e.7.&.k.+.o.I P   %.7.        V K                 ",
"                      .         j h T q.k.z.D.D.z.q.7.+.=.;.w.! X.R y     Q 9.K                 ",
"                      .       T X.B  .7.D.G.G.G.G.b.k.e.c.b.v.x.! W f   ~ x.X.                  ",
"                      < O   L w.k.z.j.v.F.Z.s.p.Z.G.F.F.G.F.v.1.4.#.E ! x.&.j       >.C         ",
"                      f @ w ^ q.v.z.2.[ i.c 7 3 h.F.F.F.Z.b.,.4.5.P q.x.:.K a     1.H.!         ",
"                      Y > > r { } ` b 7 % & 4 ] c.c.c.c.c.%.5.e.I H b.e.W B     $.H.c.W         ",
"                      g.9 . o 2 x 5 $ & 2 Z w.w.9.7.9.q.&.:.x.o.j } G.b.,.P   Q F.v.6.K         ",
"                    A.R.y.X . . X = 6 n =.6.-.-.-.-.-.-.-.q.7.I g 1.G.Z.l.%.V v.b.-.@.j         ",
"                  ` R.T.r.- + * 8 u.I.K.S o.+.+.+.+.+.-.-.-.+.K g 4.D.F.Z.b.4.3.6.+.@.s         ",
"                  g.R.P.; , 5 0 R.R.R.U.E O.+.O.O.+.+.+.+.+.+.T W 9.x.b.F.b.k.X.-.+.+.u         ",
"            j T l a.Y.I.e q : t.R.R.R.C.L ^ ! ! W T o.+.+.+.+.+.+.-.:.k.v.D.b.q.-.+.O.          ",
"            g T R V s.N.<.B v L.R.T.J.D ! 1.j.j.j.#.Y o.+.+.+.+.+.+.-.9.x.b.b.x.6.+.O.          ",
"              s / J H 2.=.=.<.N.A.B.[ { j.z.q.8.k.e.W  .+.+.+.+.+.+.-.-.9.c.c.q.-.-...          ",
"              ! k.X.L =.-.-.:.%.<.2.,.q.*.I k k L X.-.o.+.+.+.+.+.+.+.+.-.9.q.=.^ +.R           ",
"            d 7.F.c.W T T ^  .| / ! ! P A ) _ ] M J +.O.+.+.+.+.+.+.-.=. .-.X.K j +.R           ",
"            j o.b.F.k.3.*.#.#.#.&.&.! C ( n.m.M.m g +.+.+.+.+.+.+.O.o.:.&. .L p f +.U           ",
"            g T &.x.c.c.c.k.k.k.k.9.8.3.$.<.a.f.' T +.+.+.+.+.+.+...K T | ! B u d O.T           ",
"              K L Y W  .X.X.X.X.W T X.-.6.7.:.+.+.+.+.+.+.+.+.+.+. .T K k P ~ j d T T           ",
"                k K L L L L L J J J L +.+.-.-.+.+.+.+.+.+.+.+.+.+.O.+.o.T d f d u z k           ",
"                  s k d f h d d d j T o.+.+.+.+.+.+.+.+.+.+.+.+.+.+.+.o.L d p     h p           ",
"                  a z a a s a k K R +.+.+.+.+.+.+.+.+.-...o.+.+.+.+.O.^ j s a                   ",
"                    L d g k R ^ ..O.+.+.+.+.+.+.+.O.L =.=.R -.+.+.-.o.k s p B E                 ",
"                    k s L  .O.O.+.+.+.+.+.+.+.+.+.O.K P ;.R O.+.+.X.:.d d y   J t               ",
"                    y d z ..+.+.+.+.+.+.+.+.+.+.+.o.K B *.W O.+...T ! ~ p                       ",
"                    s k K k  .+.O.+.+.+.+.+.+.+.+.+. .l ~ ! R R k k K ;.V                       ",
"                  s k p p z K I ^ R X. .o...o.+.+.o...l I *.k g a h k I 9.                      ",
"                  y       h L L k d #.P L T K R T T J d d ;.B s L k     Y I                     ",
"                              k L k } f k k a d d d s s d T I k h           t                   ",
"                                  s %.f L h L z L L K l k d d                                   ",
"                                    %.K k           s  .H                                       ",
"                                    ,.K                .{                                       ",
"                                    =.s               j V                                       ",
"                                    T                   i                                       ",
"                                    s                                                           ",
"                                                                                                ",
"                                                                                                ",
"                                                                                                "
};
