/* XPM */
static char *_23328c7c6a84a71a4c5ee359a33b3c7Ff5Ic5a5mnyPpp3K[] = {
/* columns rows colors chars-per-pixel */
"48 48 6 1 ",
"  c None",
". c #14182E",
"X c #AD2F45",
"o c #686F99",
"O c #A3A7C2",
"+ c #DFE0E8",
/* pixels */
"               ..................               ",
"               ..................               ",
"               ..................               ",
"            ...++++++++++++OOOOOO...            ",
"            ...++++++++++++OOOOOO...            ",
"            ...++++++++++++OOOOOO...            ",
"         ...++++++++++++++++++OOOOOO...         ",
"         ...++++++++++++++++++OOOOOO...         ",
"         ...++++++++++++++++++OOOOOO...         ",
"         ...++++++++++++OOOOOOOOOOOO...         ",
"         ...++++++++++++OOOOOOOOOOOO...         ",
"         ...++++++++++++OOOOOOOOOOOO...         ",
"         ...++++++OOOOOOOOOOOOOOOOOO...         ",
"         ...++++++OOOOOOOOOOOOOOOOOO...         ",
"         ...++++++OOOOOOOOOOOOOOOOOO...         ",
"         ...+++OOO...+++OOOooooooOOO...         ",
"         ...+++OOO...+++OOOooooooOOO...         ",
"         ...+++OOO...+++OOOooooooOOO...         ",
"         ...OOO......+++oooOOOOOOooo...         ",
"         ...OOO......+++oooOOOOOOooo...         ",
"         ...OOO......+++oooOOOOOOooo...         ",
"         ...+++XXX...OOOOOOOOOOOOooo...         ",
"         ...+++XXX...OOOOOOOOOOOOooo...         ",
"         ...+++XXX...OOOOOOOOOOOOooo...         ",
"         ...ooo+++OOOOOOOOOoooooo...            ",
"         ...ooo+++OOOOOOOOOoooooo...            ",
"         ...ooo+++OOOOOOOOOoooooo...            ",
"         ...+++...++++++...ooo...               ",
"         ...+++...++++++...ooo...               ",
"         ...+++...++++++...ooo...               ",
"            ............oooOOO...               ",
"            ............oooOOO...               ",
"            ............oooOOO...               ",
"               ...+++OOO...+++...               ",
"               ...+++OOO...+++...               ",
"               ...+++OOO...+++...               ",
"               ...OOO...OOO+++...               ",
"               ...OOO...OOO+++...               ",
"               ...OOO...OOO+++...               ",
"               ...+++...++++++...               ",
"               ...+++...++++++...               ",
"               ...+++...++++++...               ",
"               ...oooooo......                  ",
"               ...oooooo......                  ",
"               ...oooooo......                  ",
"                  ......                        ",
"                  ......                        ",
"                  ......                        "
};
