/* XPM */
static char *cf638362145f4dddeec73516919c62946u1hRSPZoc1MAR46[] = {
/* columns rows colors chars-per-pixel */
"48 48 6 1 ",
"  c None",
". c #14182E",
"X c #AD2F45",
"o c #686F99",
"O c #A3A7C2",
"+ c #DFE0E8",
/* pixels */
"               ..................               ",
"               ..................               ",
"               ..................               ",
"            ...OOOOOO++++++++++++...            ",
"            ...OOOOOO++++++++++++...            ",
"            ...OOOOOO++++++++++++...            ",
"         ...OOOOOO++++++++++++++++++...         ",
"         ...OOOOOO++++++++++++++++++...         ",
"         ...OOOOOO++++++++++++++++++...         ",
"         ...OOOOOOOOOOOO++++++++++++...         ",
"         ...OOOOOOOOOOOO++++++++++++...         ",
"         ...OOOOOOOOOOOO++++++++++++...         ",
"         ...OOOOOOOOOOOOOOOOOO++++++...         ",
"         ...OOOOOOOOOOOOOOOOOO++++++...         ",
"         ...OOOOOOOOOOOOOOOOOO++++++...         ",
"         ...OOOooooooOOO+++...OOO+++...         ",
"         ...OOOooooooOOO+++...OOO+++...         ",
"         ...OOOooooooOOO+++...OOO+++...         ",
"         ...oooOOOOOOooo+++......OOO...         ",
"         ...oooOOOOOOooo+++......OOO...         ",
"         ...oooOOOOOOooo+++......OOO...         ",
"         ...oooOOOOOOOOOOOO...XXX+++...         ",
"         ...oooOOOOOOOOOOOO...XXX+++...         ",
"         ...oooOOOOOOOOOOOO...XXX+++...         ",
"            ...ooooooOOOOOOOOO+++ooo...         ",
"            ...ooooooOOOOOOOOO+++ooo...         ",
"            ...ooooooOOOOOOOOO+++ooo...         ",
"               ...ooo...++++++...+++...         ",
"               ...ooo...++++++...+++...         ",
"               ...ooo...++++++...+++...         ",
"               ...OOOooo............            ",
"               ...OOOooo............            ",
"               ...OOOooo............            ",
"               ...+++...OOO+++...               ",
"               ...+++...OOO+++...               ",
"               ...+++...OOO+++...               ",
"               ...+++OOO...OOO...               ",
"               ...+++OOO...OOO...               ",
"               ...+++OOO...OOO...               ",
"               ...++++++...+++...               ",
"               ...++++++...+++...               ",
"               ...++++++...+++...               ",
"                  ......oooooo...               ",
"                  ......oooooo...               ",
"                  ......oooooo...               ",
"                        ......                  ",
"                        ......                  ",
"                        ......                  "
};
