/* XPM */
static char * back_xpm[] = {
"16 16 5 1",
" 	c None",
".	c #14182E",
"+	c #A3A7C2",
"@	c #DFE0E8",
"#	c #686F99",
"     ......     ",
"    .+@@@@+.    ",
"   .+@@@@@@+.   ",
"   .+@@@@@@+.   ",
"   .+#@@@@#+.   ",
"   .#++++++#.   ",
"   .#++@@++#.   ",
"   .#++++++#.   ",
"    .#++++#.    ",
"   ....##....   ",
"  .@@##@@##@@.  ",
" .@+.++@@++.+@. ",
" .@@.##@@##.@@. ",
"  ....++++....  ",
"    .##..##.    ",
"     ..  ..     "};
