/* XPM */
static char *_0a9d7c020914b23cd2fc846e30ac6ceUgpUK045TpTtrd9o[] = {
/* columns rows colors chars-per-pixel */
"48 48 9 1 ",
"  c None",
". c #14182E",
"X c #52333F",
"o c #3A3F5E",
"O c #8F4D57",
"+ c #BD6A62",
"@ c #4FA4B8",
"# c #FFC2A1",
"$ c #DFE0E8",
/* pixels */
"               ..................               ",
"               ..................               ",
"               ..................               ",
"            ...oooooooooooooooooo...            ",
"            ...oooooooooooooooooo...            ",
"            ...oooooooooooooooooo...            ",
"         ...oooooooooooooooooooooooo...         ",
"         ...oooooooooooooooooooooooo...         ",
"         ...oooooooooooooooooooooooo...         ",
"         ...oooooooooooooooooooooooo...         ",
"         ...oooooooooooooooooooooooo...         ",
"         ...oooooooooooooooooooooooo...         ",
"         ...oooooooooooooooooooooooo...         ",
"         ...oooooooooooooooooooooooo...         ",
"         ...oooooooooooooooooooooooo...         ",
"         ...oooooooooooooooooooooooo...         ",
"         ...oooooooooooooooooooooooo...         ",
"         ...oooooooooooooooooooooooo...         ",
"      ...###oooooooooooooooooooooooo###...      ",
"      ...###oooooooooooooooooooooooo###...      ",
"      ...###oooooooooooooooooooooooo###...      ",
"      ...###oooooooooooooooooooooooo###...      ",
"      ...###oooooooooooooooooooooooo###...      ",
"      ...###oooooooooooooooooooooooo###...      ",
"         ...+++oooooooooooooooooo+++...         ",
"         ...+++oooooooooooooooooo+++...         ",
"         ...+++oooooooooooooooooo+++...         ",
"         ......++++++oooooo++++++......         ",
"         ......++++++oooooo++++++......         ",
"         ......++++++oooooo++++++......         ",
"      ...###$$$XXX............XXX$$$###...      ",
"      ...###$$$XXX............XXX$$$###...      ",
"      ...###$$$XXX............XXX$$$###...      ",
"   ...###+++...XXXOOOXXXXXXOOOXXX...+++###...   ",
"   ...###+++...XXXOOOXXXXXXOOOXXX...+++###...   ",
"   ...###+++...XXXOOOXXXXXXOOOXXX...+++###...   ",
"   ...######...XXXXXXOOOOOOXXXXXX...######...   ",
"   ...######...XXXXXXOOOOOOXXXXXX...######...   ",
"   ...######...XXXXXXOOOOOOXXXXXX...######...   ",
"      ............@@@@@@@@@@@@............      ",
"      ............@@@@@@@@@@@@............      ",
"      ............@@@@@@@@@@@@............      ",
"            ...++++++......++++++...            ",
"            ...++++++......++++++...            ",
"            ...++++++......++++++...            ",
"               ......      ......               ",
"               ......      ......               ",
"               ......      ......               "
};
