/* XPM */
static char *cd85c318020d495aa521f384cecdc3d0OVjChfpYYvqPk1DY[] = {
/* columns rows colors chars-per-pixel */
"48 48 11 1 ",
"  c None",
". c #14182E",
"X c #52333F",
"o c #2B2B45",
"O c #3A3F5E",
"+ c #8F4D57",
"@ c #BD6A62",
"# c #4C6885",
"$ c #4FA4B8",
"% c #FFC2A1",
"& c #DFE0E8",
/* pixels */
"               ..................               ",
"               ..................               ",
"               ..................               ",
"            ...OOOOOOOOOOOOOOOOOO...            ",
"            ...OOOOOOOOOOOOOOOOOO...            ",
"            ...OOOOOOOOOOOOOOOOOO...            ",
"         ...OOOOOOOOOOOOOOOOOOOOOOOO...         ",
"         ...OOOOOOOOOOOOOOOOOOOOOOOO...         ",
"         ...OOOOOOOOOOOOOOOOOOOOOOOO...         ",
"         ...OOOOOOOOOOOOOOOOOOOOOOOO...         ",
"         ...OOOOOOOOOOOOOOOOOOOOOOOO...         ",
"         ...OOOOOOOOOOOOOOOOOOOOOOOO...         ",
"         ...OOO%%%OOOOOOOOOOOO%%%OOO...         ",
"         ...OOO%%%OOOOOOOOOOOO%%%OOO...         ",
"         ...OOO%%%OOOOOOOOOOOO%%%OOO...         ",
"         ...OOO%%%%%%%%%%%%%%%%%%OOO...         ",
"         ...OOO%%%%%%%%%%%%%%%%%%OOO...         ",
"         ...OOO%%%%%%%%%%%%%%%%%%OOO...         ",
"      ...%%%OOOoooooo%%%%%%ooooooOOO%%%...      ",
"      ...%%%OOOoooooo%%%%%%ooooooOOO%%%...      ",
"      ...%%%OOOoooooo%%%%%%ooooooOOO%%%...      ",
"      ...%%%OOO%%%...%%%%%%...%%%OOO%%%...      ",
"      ...%%%OOO%%%...%%%%%%...%%%OOO%%%...      ",
"      ...%%%OOO%%%...%%%%%%...%%%OOO%%%...      ",
"         ...@@@%%%...@@@@@@...%%%@@@...         ",
"         ...@@@%%%...@@@@@@...%%%@@@...         ",
"         ...@@@%%%...@@@@@@...%%%@@@...         ",
"         ......@@@%%%%%%%%%%%%@@@......         ",
"         ......@@@%%%%%%%%%%%%@@@......         ",
"         ......@@@%%%%%%%%%%%%@@@......         ",
"      ...%%%&&&XXX+++@@@@@@+++XXX&&&%%%...      ",
"      ...%%%&&&XXX+++@@@@@@+++XXX&&&%%%...      ",
"      ...%%%&&&XXX+++@@@@@@+++XXX&&&%%%...      ",
"   ...%%%@@@...XXX+++&&&&&&+++XXX...@@@%%%...   ",
"   ...%%%@@@...XXX+++&&&&&&+++XXX...@@@%%%...   ",
"   ...%%%@@@...XXX+++&&&&&&+++XXX...@@@%%%...   ",
"   ...%%%%%%...++++++&&&&&&++++++...%%%%%%...   ",
"   ...%%%%%%...++++++&&&&&&++++++...%%%%%%...   ",
"   ...%%%%%%...++++++&&&&&&++++++...%%%%%%...   ",
"      ............###$$$$$$###............      ",
"      ............###$$$$$$###............      ",
"      ............###$$$$$$###............      ",
"            ...@@@@@@......@@@@@@...            ",
"            ...@@@@@@......@@@@@@...            ",
"            ...@@@@@@......@@@@@@...            ",
"               ......      ......               ",
"               ......      ......               ",
"               ......      ......               "
};
