/* XPM */
static char *c9d3accd66ef4cbfc753eed19805e88aYkivhLUUwNYWLO8w[] = {
/* columns rows colors chars-per-pixel */
"48 48 10 1 ",
"  c None",
". c #14182E",
"X c #52333F",
"o c #2B2B45",
"O c #3A3F5E",
"+ c #8F4D57",
"@ c #BD6A62",
"# c #4FA4B8",
"$ c #FFC2A1",
"% c #DFE0E8",
/* pixels */
"               ..................               ",
"               ..................               ",
"               ..................               ",
"            ...OOOOOOOOOOOOOOOOOO...            ",
"            ...OOOOOOOOOOOOOOOOOO...            ",
"            ...OOOOOOOOOOOOOOOOOO...            ",
"         ...OOOOOOOOOOOOOOOOOOOOOOOO...         ",
"         ...OOOOOOOOOOOOOOOOOOOOOOOO...         ",
"         ...OOOOOOOOOOOOOOOOOOOOOOOO...         ",
"         ...OOOOOOOOOOOOOOOOOOOOOOOO...         ",
"         ...OOOOOOOOOOOOOOOOOOOOOOOO...         ",
"         ...OOOOOOOOOOOOOOOOOOOOOOOO...         ",
"         ...OOOOOO$$$OOOOOOOOOOOOOOO...         ",
"         ...OOOOOO$$$OOOOOOOOOOOOOOO...         ",
"         ...OOOOOO$$$OOOOOOOOOOOOOOO...         ",
"         ...$$$$$$$$$OOOOOOOOOOOOOOO...         ",
"         ...$$$$$$$$$OOOOOOOOOOOOOOO...         ",
"         ...$$$$$$$$$OOOOOOOOOOOOOOO...         ",
"         ...$$$ooooooOOOOOOOOOOOOOOO...         ",
"         ...$$$ooooooOOOOOOOOOOOOOOO...         ",
"         ...$$$ooooooOOOOOOOOOOOOOOO...         ",
"         ...$$$...$$$OOO$$$$$$OOOOOO...         ",
"         ...$$$...$$$OOO$$$$$$OOOOOO...         ",
"         ...$$$...$$$OOO$$$$$$OOOOOO...         ",
"         ...@@@...$$$OOO@@@$$$OOO...            ",
"         ...@@@...$$$OOO@@@$$$OOO...            ",
"         ...@@@...$$$OOO@@@$$$OOO...            ",
"            ...$$$$$$$$$$$$OOO...               ",
"            ...$$$$$$$$$$$$OOO...               ",
"            ...$$$$$$$$$$$$OOO...               ",
"               ......@@@XXX......               ",
"               ......@@@XXX......               ",
"               ......@@@XXX......               ",
"            ...%%%+++XXX...%%%...               ",
"            ...%%%+++XXX...%%%...               ",
"            ...%%%+++XXX...%%%...               ",
"            ...%%%+++...@@@$$$...               ",
"            ...%%%+++...@@@$$$...               ",
"            ...%%%+++...@@@$$$...               ",
"            ...######...$$$$$$...               ",
"            ...######...$$$$$$...               ",
"            ...######...$$$$$$...               ",
"               ...@@@@@@......                  ",
"               ...@@@@@@......                  ",
"               ...@@@@@@......                  ",
"                  ......                        ",
"                  ......                        ",
"                  ......                        "
};
