/* XPM */
static char *player_down1671474733[] = {
/* columns rows colors chars-per-pixel */
"48 48 238 2 ",
"   c None",
".  c #050003",
"X  c #0B0101",
"o  c #0A050B",
"O  c #140101",
"+  c #1D0201",
"@  c #19060A",
"#  c #0A0114",
"$  c #050316",
"%  c #140716",
"&  c #18151A",
"*  c #240300",
"=  c #2A0301",
"-  c #280C07",
";  c #380904",
":  c #2C130B",
">  c #3A1309",
",  c #281817",
"<  c #3B1C19",
"1  c #331815",
"2  c #3E261B",
"3  c #1B1723",
"4  c #150D34",
"5  c #191639",
"6  c #110829",
"7  c #271539",
"8  c #2D1929",
"9  c #1F2136",
"0  c #2C2428",
"q  c #352627",
"w  c #392A33",
"e  c #373136",
"r  c #2D3238",
"t  c #450802",
"y  c #4C1207",
"u  c #4C190E",
"i  c #46150A",
"p  c #58180B",
"a  c #491813",
"s  c #581A15",
"d  c #550B01",
"f  c #66150C",
"g  c #671C16",
"h  c #7B1D0F",
"j  c #43231C",
"k  c #4C211B",
"l  c #482314",
"z  c #5D2018",
"x  c #56321D",
"c  c #62231C",
"v  c #66241A",
"b  c #77251B",
"n  c #461E20",
"m  c #472826",
"M  c #522D2A",
"N  c #5A2E2C",
"B  c #5A2823",
"V  c #483937",
"C  c #573734",
"Z  c #57312C",
"A  c #652B24",
"S  c #672926",
"D  c #772B26",
"F  c #67342B",
"G  c #7B3329",
"H  c #773A38",
"J  c #6E3733",
"K  c #5A443B",
"L  c #784A35",
"P  c #794A33",
"I  c #291D47",
"U  c #2A2947",
"Y  c #3A3747",
"T  c #2B2856",
"R  c #342C58",
"E  c #36365A",
"W  c #312F53",
"Q  c #3B3767",
"!  c #121943",
"~  c #463846",
"^  c #5B3C4B",
"/  c #41366C",
"(  c #463B75",
")  c #4B4547",
"_  c #584844",
"`  c #514E54",
"'  c #794E40",
"]  c #6B5149",
"[  c #755444",
"{  c #655457",
"}  c #785957",
"|  c #6B4850",
" . c #76645A",
".. c #64605C",
"X. c #4B4377",
"o. c #51486B",
"O. c #685B64",
"+. c #615D76",
"@. c #796968",
"#. c #6E6872",
"$. c #871E1B",
"%. c #89261D",
"&. c #852D26",
"*. c #86342B",
"=. c #95322D",
"-. c #943B2C",
";. c #853C36",
":. c #973935",
">. c #912C24",
",. c #A43C37",
"<. c #854739",
"1. c #86553A",
"2. c #974237",
"3. c #A1453A",
"4. c #924741",
"5. c #8B5945",
"6. c #855751",
"7. c #AA4D46",
"8. c #A9554B",
"9. c #B5544C",
"0. c #A75651",
"q. c #B55D53",
"w. c #BB5B53",
"e. c #B85550",
"r. c #88665A",
"t. c #976A59",
"y. c #94664E",
"u. c #A36B5B",
"i. c #BB655B",
"p. c #A5694F",
"a. c #876E66",
"s. c #967468",
"d. c #907472",
"f. c #8D716D",
"g. c #A47565",
"h. c #B37366",
"j. c #C65F58",
"k. c #C3665A",
"l. c #C86961",
"z. c #CB776D",
"x. c #CE977C",
"c. c #CD957B",
"v. c #EF8C7D",
"b. c #F38D7E",
"n. c #595388",
"m. c #7D74A6",
"M. c #7E7789",
"N. c #867982",
"B. c #8B8989",
"V. c #878B93",
"C. c #998E8F",
"Z. c #BB958A",
"A. c #A49697",
"S. c #B89B96",
"D. c #AE8B8E",
"F. c #B8A39D",
"G. c #848CAB",
"H. c #8992A3",
"J. c #9696A7",
"K. c #9899B8",
"L. c #958BAF",
"P. c #A398A0",
"I. c #ACA7AA",
"U. c #B6A7AA",
"Y. c #A9B3BD",
"T. c #B9B4B8",
"R. c #B9AFB0",
"E. c #C59B8C",
"W. c #D59D88",
"Q. c #C39D93",
"!. c #CA9C94",
"~. c #C89999",
"^. c #F59689",
"/. c #F39085",
"(. c #D8A589",
"). c #C9A69A",
"_. c #D9A997",
"`. c #DDBA9C",
"'. c #ECB69B",
"]. c #EEB299",
"[. c #C29BA6",
"{. c #C7A9A5",
"}. c #DAADA4",
"|. c #C9B3AB",
" X c #DCB5AC",
".X c #CCB4B3",
"XX c #E6BBA9",
"oX c #F4BBA2",
"OX c #F4B9A7",
"+X c #E8BBB4",
"@X c #FABCB3",
"#X c #EBAEA9",
"$X c #EBC7AA",
"%X c #F7C6AA",
"&X c #EAC4B4",
"*X c #FFCBB7",
"=X c #F2CBBA",
"-X c #FAC6B7",
";X c #F6D3B3",
":X c #FED4BA",
">X c #FDDABB",
",X c #F8D4BA",
"<X c #FFE1BE",
"1X c #A5ABC8",
"2X c #B2AEC7",
"3X c #AAB5C9",
"4X c #B9B9C7",
"5X c #B8BAD7",
"6X c #B0B3D1",
"7X c #A79FD0",
"8X c #C6B8CC",
"9X c #BAC6D7",
"0X c #B9C0C8",
"qX c #BAC3E2",
"wX c #C4C2C6",
"eX c #D5CDD0",
"rX c #F9CBC2",
"tX c #FCD5C4",
"yX c #FEDBC2",
"uX c #FDD4CB",
"iX c #FEDBCC",
"pX c #F5D3C7",
"aX c #E3DDDE",
"sX c #FFDCD2",
"dX c #FAD7D8",
"fX c #EBCDC2",
"gX c #FFE2C4",
"hX c #FFE2C9",
"jX c #FFE4D8",
"kX c #D7D9F9",
"lX c #C2C1E0",
"zX c #E2DCF1",
"xX c #E8E3EB",
"cX c #FFE7E9",
"vX c #E8E6FA",
"bX c #FEF3F6",
"nX c #FFEDEB",
"mX c #D4E5F5",
/* pixels */
"                                                                                                ",
"                                                  m                                             ",
"                                M M             M N j             - 8                           ",
"                                M H N ; > j > k J H A a k : > > N N <                           ",
"                                S H H H S n u c ;.0.G S y i A L H S n                           ",
"                        V C M s D D :.0.4.g s b 0.k.i.b f D 4.0.4.v s ; a , q                   ",
"                          M C H =.b =.e.l.:.D b w./.k.%.f :.q.7.=.&.;.J M j                     ",
"                          t S 4.7.:.$.,./.e.*.h ^.v./.h =.l.e.:.$.=.e.<.B *                     ",
"                    , 1 1 s S &.j.l.-.%.i.b.i.%.^.b.^.>.k.k.3.3.:.e.9.G z n n < ,               ",
"                      < J ;.:.*.k.b.j.>.3.q.q.2.^.b.v.-.9.8.2.%.=.e.=.D D J n ,                 ",
"                      = B ;.l.l.=.9.j.&.h <.i.*.k.^.i.2.3.1.v h &.=.b *.;.S a *                 ",
"                      = a S ;.e.9.3.l.<.p p ;.g G i.-.b G v p z g b &.&.;.S ; *                 ",
"                , , a i a f g &.>.*.t t u t F y ;.;.D p x i i i s g D D D z u j , , 3           ",
"                  q | ^ S g g f d G s *XsX; t i S H s p p i =XgXa S p p s s N m 1 ,             ",
"                    C H J g g t @X-X; jXpXuXdXk u S y ; uXuXhXjX; rXrXt s z F M 1               ",
"                    ; B H H b f @X-XiX,XsXsXuXrXa B a > i uXuXuXdXrX#Xc g J N < +               ",
"                    n ; S z g f d %X*XtXyX,XiXtXhXM hX=XpX> yXiX*X-Xy g <.B > : 1               ",
"                    m N H 4.g p g '.%X:X<X>X>XhXpXyX>XhXgX> iXtX%XoXy y z s Z > m               ",
"                    * = a S P t (.p.<.1.P (.%X;X<X>X>X:X%X_.P <.<.h._.t A B k * O               ",
"                      6.!.u s p c.%X'.%XoXx._.OX>X>X:X%Xx.W.$X*X].oXW.y y u r.}                 ",
"                      } iX).; g.W.5.5.L y.1.c.].oX%XoXoXx.5.P P 1.1.W.t.p ).sX]                 ",
"                      O pX,Xi y.5.P = * = ' u.#X*XoX%XoXp.1.; = = L 5.u.; +XdX*                 ",
"                        |. X< t.E.).C * - = g.@XoX@X].*Xt.= } + O {.c.g.u &X.X                  ",
"                          d.> t.!.jXm @ m .X[.@XOX%X*XXX).S.M O w bXQ.t.> f.                    ",
"                            : r.[.dX6.% | cX X,X@X*X%XtX).jX} @ O.cXS.g.*                       ",
"                              a.}.dX.XD.[.jX X>X>X*X>XgX&XnXD.S.D.cX[.s.                        ",
"                              O ).}.+X+XrXsX<X<X;X>X;XgX,XiXiX XrX~.S.+                         ",
"                                a.~.+X-XOXtX;X;X:X`.<X;XgX$X&XrXrX~.d.                          ",
"                                  f._.&X'.$X;X$X`.`.,X'.$X;X&X&X!.s.                            ",
"                                  + = g._.`.%X$X$XXX X=X=XXX).r.* +                             ",
"                                K q m * = g.t._.E._.}.~.r.s.+ O V ) `                           ",
"                              B.0Xq @.d.K : - * * = = - + O D.C.P.R.0XV.                        ",
"                            J.T.xX8 a.d. .m  .|.e f.~ wX+.V.0XT.4X4XxXT.B.                      ",
"                          K I.xXxXo a.O.] . B.@.I.Y J.+.H.9XY.0X#.5XaXaXT.)                     ",
"                          X I..XN.P.@ o . I.wXV.Y.M.5XK.0X1XY.V.o.L.C.eXB..                     ",
"                          @.X X @ V 8 e 3 xX0X0X2XL.6X6X9XmX9XH.$ Y . . X ..                    ",
"                          S.U.{.A.@ @ ~ 3 Y.5X1X8X7XqX6XqX3XH.H.Y # T.I.U.R.                    ",
"                      a.[ &X=XF.O bXw N.$ 9X3X1XlXkX5X1X1XqX3XK.U bXo 0 e 0 0                   ",
"                    r.[ !.iXpXF.* , 3 E 6 G.qXkXvXkXkXvXqXG.K.G.` 3 $ e _ aXeX                  ",
"                  .X|.[ _.=XiX).@ 1 Y $ T ! T R 4 4 I I T ! T U 5 ) . ) @.eXT.O.                ",
"                B.S.Z.K ).tXL ).+ O o U Q X.Q n.L.7XN.n.( Q / W 9 Y & 0 0 ..) 3                 ",
"                ` F. .[ }.E.* + } @.3 U T T n.( T ( Q Q ( ( R I 9 Y 3 & & ) e                   ",
"                  @..XD.+ * + K a._ 3 Y o.N.( R ! ! 4 W X.n.( T 9 r r 3 . .                     ",
"                  @.wX .+ 1 K _ V _ % # 6 7 I % 6 # % # 7 7 I 4 o & 0 &                         ",
"                  #.A.X     O X @ . o O.U.dXpX{.}   { {.dXdX[.^ & o &                           ",
"                    o                 { {.XX=XZ.]   ] {.&X`.}.r.                                ",
"                                      - a F P x +   - j x K l -                                 ",
"                                      O j  .L l -   + j [ L 2 @                                 "
};
