/* XPM */
static char *player_left1671474733[] = {
/* columns rows colors chars-per-pixel */
"48 48 235 2 ",
"   c None",
".  c #020003",
"X  c #02020B",
"o  c #0B0408",
"O  c #130101",
"+  c #1B0203",
"@  c #17040B",
"#  c #0B0013",
"$  c #191719",
"%  c #100C1A",
"&  c #240301",
"*  c #2B0201",
"=  c #290A0A",
"-  c #330100",
";  c #3B0100",
":  c #380C06",
">  c #3C1508",
",  c #2D1212",
"<  c #2D1919",
"1  c #331414",
"2  c #3C1413",
"3  c #39191A",
"4  c #330F10",
"5  c #3B211C",
"6  c #22201A",
"7  c #0A0A25",
"8  c #170725",
"9  c #1B1A2C",
"0  c #160835",
"q  c #19193B",
"w  c #2A142F",
"e  c #1D2131",
"r  c #272325",
"t  c #272737",
"y  c #373539",
"u  c #372B2F",
"i  c #440D01",
"p  c #4A0C03",
"a  c #4B1502",
"s  c #48180A",
"d  c #52140D",
"f  c #561708",
"g  c #441413",
"h  c #4A1414",
"j  c #431B1A",
"k  c #481819",
"l  c #551A14",
"z  c #5B1B15",
"x  c #531C1B",
"c  c #5A1917",
"v  c #4E0F0D",
"b  c #64130C",
"n  c #621B13",
"m  c #671B16",
"M  c #761B16",
"N  c #71170E",
"B  c #58220B",
"V  c #4B241A",
"C  c #5B211B",
"Z  c #592017",
"A  c #64231A",
"S  c #6B231D",
"D  c #622C14",
"F  c #74241C",
"G  c #7C231C",
"H  c #792419",
"J  c #6B3C1E",
"K  c #591D22",
"L  c #401C20",
"P  c #4C2C2C",
"I  c #472625",
"U  c #5C2323",
"Y  c #562827",
"T  c #5E362B",
"R  c #473435",
"E  c #5D3132",
"W  c #593833",
"Q  c #632423",
"!  c #692422",
"~  c #642A25",
"^  c #612B2A",
"/  c #69282A",
"(  c #7B2B24",
")  c #752A26",
"_  c #633427",
"`  c #78342C",
"'  c #662A32",
"]  c #6B3234",
"[  c #653839",
"{  c #763835",
"}  c #53413D",
"|  c #77492B",
" . c #78463A",
".. c #6C433D",
"X. c #271344",
"o. c #322958",
"O. c #3A3758",
"+. c #31304F",
"@. c #3B316A",
"#. c #443F45",
"$. c #483971",
"%. c #454447",
"&. c #5D5E58",
"*. c #514D51",
"=. c #7D4642",
"-. c #6E534F",
";. c #524C6D",
":. c #666569",
">. c #786663",
",. c #74727C",
"<. c #6A6A71",
"1. c #821B15",
"2. c #83231C",
"3. c #8C261C",
"4. c #832C25",
"5. c #892D27",
"6. c #932D29",
"7. c #952D2A",
"8. c #82332E",
"9. c #8C322B",
"0. c #83362B",
"q. c #93332D",
"w. c #9A332B",
"e. c #96362B",
"r. c #853B34",
"t. c #883935",
"y. c #973933",
"u. c #A23D38",
"i. c #94433B",
"p. c #8A5539",
"a. c #8D4B3B",
"s. c #A6433A",
"d. c #854841",
"f. c #81594C",
"g. c #985E5B",
"h. c #A74B44",
"j. c #B8564C",
"k. c #A85A55",
"l. c #BB5851",
"z. c #A8584D",
"x. c #89624A",
"c. c #8D6456",
"v. c #996655",
"b. c #92725D",
"n. c #A8635A",
"m. c #BA635A",
"M. c #8C6C67",
"N. c #936D66",
"B. c #887562",
"V. c #9B7467",
"C. c #8E7B7D",
"Z. c #AC7465",
"A. c #B4736F",
"S. c #C65D58",
"D. c #C8635A",
"F. c #D0655F",
"G. c #CA6B64",
"H. c #CB726B",
"J. c #B48875",
"K. c #958778",
"L. c #C8927B",
"P. c #6F6C9D",
"I. c #65518E",
"U. c #7B8096",
"Y. c #969198",
"T. c #8E8994",
"R. c #B38C87",
"E. c #B89789",
"W. c #A59391",
"Q. c #AFA293",
"!. c #918EA2",
"~. c #9696A5",
"^. c #8A8FAF",
"/. c #A49EB8",
"(. c #A8A9A5",
"). c #B5B3B5",
"_. c #D98F89",
"`. c #C9998A",
"'. c #DC9B8B",
"]. c #D49A92",
"[. c #CA9794",
"{. c #E8948F",
"}. c #F18F89",
"|. c #D8A386",
" X c #CCA896",
".X c #DEA69A",
"XX c #D7A795",
"oX c #CBA995",
"OX c #E3AA96",
"+X c #EAB599",
"@X c #F2BA9E",
"#X c #F6B99B",
"$X c #E9A98E",
"%X c #C4A9A3",
"&X c #D5BDAA",
"*X c #D9ADA0",
"=X c #ECBCA6",
"-X c #F2BCA4",
";X c #FBBDA6",
":X c #F6BEB2",
">X c #F8AAA7",
",X c #F5C19C",
"<X c #DFC5B4",
"1X c #F3C3A4",
"2X c #FDC4A5",
"3X c #F3C3AB",
"4X c #FBC3AB",
"5X c #FAC9AD",
"6X c #E9C8B2",
"7X c #FCCCB2",
"8X c #F9C6B6",
"9X c #FED4BC",
"0X c #F6D3BC",
"qX c #EEC1A2",
"wX c #AAA9C7",
"eX c #B6ADC5",
"rX c #B8B8C7",
"tX c #B8B8D6",
"yX c #C7BCD5",
"uX c #C3C1D7",
"iX c #DCDFD6",
"pX c #FCCCC4",
"aX c #FDD4C3",
"sX c #FEDAC4",
"dX c #FFD4CB",
"fX c #F8D9C9",
"gX c #FCDBD3",
"hX c #E7C8C6",
"jX c #FFE6D4",
"kX c #CCCBE4",
"lX c #DADAF7",
"zX c #FFDFE0",
"xX c #DEE2FF",
"cX c #FFE9E7",
"vX c #E7E8EE",
/* pixels */
"                                                    E I                                         ",
"                                                [ E [ j                                         ",
"                                              [ ] { U :                                         ",
"                            I             ^  .{ { ! v c x : : 1 V 5 < R                         ",
"                            E ] x Y U Y d.v.v.t.N f B H ` r.` { ] ^ P                           ",
"                            =.g.{ z m r.k.m.i.H H 1.i.j.m.H.t.` / x *                           ",
"                          ^ A.].t.S h.H.k.y.N G i.j.s.D.s.6.2.H M m ; V 1 , 1 < r               ",
"                          { _.{.y.H D.}.y.2.M w.j.D.e.w.1.3.3.9.q.9.d._ ..W P I                 ",
"                        K k.>Xm.G t.}.D.2.3.s.h.w.3.e.w.D.S.S.j.y.5.t./ ' U k &                 ",
"                        =._.{.q.0.h.D.9.4.w.u.y.e.w.F.l.F.S.S.u.1.2.) / l h * zX                ",
"                      2 =.>Xz.8.( z.4.G 4.4.4.G 6.h.H.l.S.w.7.6.7.7.5.! A Q h 2                 ",
"                      W =.k.t.( f a.b f A ) ` ` 0.i.e.e.u.7.w.3.7.7.5.t.) c U [                 ",
"                      I { =.) c f B l i i a n ) ) r.M N M M 1.2.1.2.G b ) / ' Y P               ",
"                        ] ] / c s : : aXdXs C Z z b m 4.5.9.q.7.7.t.M 8.) ! K E I r             ",
"                        h Q ' x > fXjXfXgX: dX8Xd f m M ( 4.4.6.q.5.5.M m v h * = O o           ",
"                          h h g > > fXfXgXgXdXpXl m ( 8.( M ( G 6.t.t.8.( ! U k L               ",
"                          V.V sX0X9X> 0XsXdXgXh C { =./ / / ! m S S F S m ~ ~ ^ I               ",
"                          B.6X9X9X5Xs sXaXaXpX; f ~ / / ' ' K K ~ A A n S A ~ ^ U P             ",
"                          B.6X6XqXqX| | p.Z.'.4Xz z p d K U ' K z l A m A l C V P P I           ",
"                            oXqX+XL.|.5X1X#X'.2Xp a a A Q ; ; - ; ; ! ! z d s j 2 3 < o         ",
"                            x.7X,Xp. .x.J p.L.7X-X4XB B i Z.].g. .C Q S z l g 3 , O             ",
"                            J.+X$Xp.* * x.| | @X7X@Xf B i .X:XpXf.^ ~ Q / C g 4                 ",
"                            c.7X#X'.c.& J.*Xv.,X3X3Xa B a .XpX:X* g U U Q U k +                 ",
"                            b.3X#XOX* 3 cXE.b.5X3X3Xa f 8X.X*XV.& g g K K Y I 5                 ",
"                            oX5X8X.X* -.cXE.b.1X=X4Xi 3X8X].v.- ; g g k g 3 1 <                 ",
"                            oXsXpX:XR.%XjX9X1X5X=X-X4X4X;X; ; [.g g L 2 1 4 O @ .               ",
"                          K.&XjX9XaXdXpXsX3X,X2X2X2X#X4XL.]..XK g 4 3 1 @                       ",
"                            %X6XaXsXaX6XqX+X,X#X;X#X2X4XOX`.- g g j ,                           ",
"                              W.&X6X6X3X3X,X5X2X#X#X;X`.`.x I k 2 5                             ",
"                                B.oXpX6X3XqX@X@X+XOXL.*X> * I = O                               ",
"                                  O N.V.`.`. X`.XX|.*XM.M.= O                                   ",
"                                      & & & & & * & & @ @ W.y                                   ",
"                                      &.#.).>.Y.Y.T.eXyXuXrXY.                                  ",
"                                      %.T.:.Y.).).kXeXlX(.uXrX%.                                ",
"                                    +.~.rX!.uXrXrXX P.vXvXrXT..                                 ",
"                                    %.rXeXtXlXrXyXY.. . o . o                                   ",
"                                      !.kXtXtXwXY.!.. :.).(.*.                                  ",
"                                      y lXtXwXkXrX~.r $ r y 6                                   ",
"                                      ;.lXlXtXU.U.e <.vXiXQ.&.$                                 ",
"                                      7 q o.o.@.q 9 %.(.(.).&.:.*.                              ",
"                                      T.wXP.P.$.;.0 o.<.,.%.6 #.&.%.                            ",
"                                      t O.o.$.@.@.0 0 #.y $ r y *.#.$                           ",
"                                      X e 7 o.$.I.$.q 8 7 9 X y %.e                             ",
"                                        % % 7 w w 0 w 8 # o r y 9                               ",
"                                          C.K.-.zXhXgX>.} O o .                                 ",
"                                          -.b.-.c.:X6XE.-.                                      ",
"                                          5 V : a | _ T +                                       ",
"                                        + R P & ..b. .W +                                       "
};
