/* XPM */
static char *player_up1671474733[] = {
/* columns rows colors chars-per-pixel */
"48 48 229 2 ",
"   c None",
".  c #050102",
"X  c #0C0101",
"o  c #080409",
"O  c #140100",
"+  c #1B0201",
"@  c #1D0A03",
"#  c #170809",
"$  c #070615",
"%  c #120C14",
"&  c #191419",
"*  c #230301",
"=  c #210A05",
"-  c #2B0D0B",
";  c #270909",
":  c #38090A",
">  c #2D110E",
",  c #26110D",
"<  c #37130C",
"1  c #3B0F10",
"2  c #241414",
"3  c #2D1413",
"4  c #2E1C1D",
"5  c #271817",
"6  c #341513",
"7  c #3C1414",
"8  c #341A16",
"9  c #3B1A16",
"0  c #341C1C",
"q  c #3C1B1A",
"w  c #3A1619",
"e  c #3A221A",
"r  c #1A1825",
"t  c #231B23",
"y  c #281F28",
"u  c #381F21",
"i  c #2D2325",
"p  c #292329",
"a  c #322323",
"s  c #3A2223",
"d  c #342A2A",
"f  c #392929",
"g  c #3C302C",
"h  c #332D35",
"j  c #362C34",
"k  c #393437",
"l  c #292937",
"z  c #450E0D",
"x  c #480C0B",
"c  c #47110C",
"v  c #441413",
"b  c #4B1312",
"n  c #441A14",
"m  c #4B1917",
"M  c #421B1B",
"N  c #4C1B1A",
"B  c #481618",
"V  c #541513",
"C  c #5C1B16",
"Z  c #531B1B",
"A  c #5B1E1C",
"S  c #5A1613",
"D  c #51110F",
"F  c #6E130E",
"G  c #76140D",
"H  c #631A16",
"J  c #6C1A15",
"K  c #631C1A",
"L  c #6D1D1A",
"P  c #6C1511",
"I  c #721513",
"U  c #741B13",
"Y  c #7C1C14",
"T  c #731E1B",
"R  c #7C1D1B",
"E  c #7A1511",
"W  c #49261A",
"Q  c #5C211E",
"!  c #54201E",
"~  c #41220E",
"^  c #64211D",
"/  c #6D221D",
"(  c #72221D",
")  c #7A221E",
"_  c #5D1C20",
"`  c #6E1E21",
"'  c #4B2523",
"]  c #442C2B",
"[  c #522B26",
"{  c #582B26",
"}  c #592726",
"|  c #49332A",
" . c #54382A",
".. c #423431",
"X. c #483839",
"o. c #573B36",
"O. c #642523",
"+. c #6C2423",
"@. c #632C2B",
"#. c #6C2C2A",
"$. c #682925",
"%. c #742622",
"&. c #7C2521",
"*. c #7C2A25",
"=. c #742D29",
"-. c #782B29",
";. c #623829",
":. c #7E312D",
">. c #75312E",
",. c #782F31",
"<. c #673836",
"1. c #7B3A37",
"2. c #584339",
"3. c #5A402F",
"4. c #754F37",
"5. c #453C43",
"6. c #473D48",
"7. c #3D404F",
"8. c #4A444A",
"9. c #464148",
"0. c #53454B",
"q. c #5B4B47",
"w. c #494654",
"e. c #524953",
"r. c #5B5457",
"t. c #664D45",
"y. c #75584B",
"u. c #795A53",
"i. c #60534A",
"p. c #77635A",
"a. c #7C604B",
"s. c #5C5966",
"d. c #665960",
"f. c #6C6263",
"g. c #6B676C",
"h. c #796867",
"j. c #666575",
"k. c #746F77",
"l. c #7B7578",
"z. c #821E1C",
"x. c #831C15",
"c. c #83231C",
"v. c #89261E",
"b. c #91291E",
"n. c #8A2521",
"m. c #832A24",
"M. c #8C2C26",
"N. c #842D2B",
"B. c #8B2D2B",
"V. c #842524",
"C. c #932B25",
"Z. c #922E2B",
"A. c #902721",
"S. c #84332C",
"D. c #8C332C",
"F. c #8D3329",
"G. c #94322D",
"H. c #9C312C",
"J. c #92392E",
"K. c #843433",
"L. c #8E3531",
"P. c #883B37",
"I. c #943432",
"U. c #993634",
"Y. c #9A3A34",
"T. c #943D37",
"R. c #A33C34",
"E. c #884239",
"W. c #964139",
"Q. c #80523B",
"!. c #A24033",
"~. c #825A4A",
"^. c #A7544B",
"/. c #B5544A",
"(. c #B75B55",
"). c #A24941",
"_. c #8A6249",
"`. c #846659",
"'. c #93735D",
"]. c #B5625C",
"[. c #856864",
"{. c #8B736C",
"}. c #A57A67",
"|. c #BC6C65",
" X c #C25E57",
".X c #C15B4F",
"XX c #C7665F",
"oX c #CA6A62",
"OX c #D87169",
"+X c #DF8177",
"@X c #747385",
"#X c #8A858A",
"$X c #97888A",
"%X c #8C8E94",
"&X c #938E97",
"*X c #97959A",
"=X c #BD9E8E",
"-X c #A09B9F",
";X c #BAA296",
":X c #9796A4",
">X c #A69EA2",
",X c #A09FB1",
"<X c #A9A4A7",
"1X c #B6ADAC",
"2X c #AAACBC",
"3X c #B4B3BC",
"4X c #BAB5BA",
"5X c #B6B3B4",
"6X c #C9A89A",
"7X c #C8ACA2",
"8X c #C8B6B2",
"9X c #EFCEBB",
"0X c #ADB4C5",
"qX c #B3B4C5",
"wX c #BEBDC3",
"eX c #B3B8C7",
"rX c #B7BDD3",
"tX c #BFC3CF",
"yX c #C3C2C6",
"uX c #C3C9DC",
"iX c #DAD5D8",
"pX c #D3CBC9",
"aX c #E2D6D8",
"sX c #DEDDE3",
"dX c #D2D8EA",
"fX c #E6DDE4",
"gX c #DAE1EB",
"hX c #E2E5ED",
"jX c #F2F1FB",
/* pixels */
"                                                                                                ",
"                                                  ]                                             ",
"                                o.|           9 { { [ n         6 ] y                           ",
"                                ' @.{ b ! c D O.>.E.1.$.C c v m ! [ 8                           ",
"                                _ +.=.>.=.K J T.(.(./.W.( / E.1.>.} n                           ",
"                        ..o.[ V =.L E.].W.I.V. X].OX(.+X( F.^.].P.+.D N 6 0 f                   ",
"                          [ <.4.S.m.J.].^.J.H. X.X.XOX!.b.W.W.^.N.K.,.1.{ e                     ",
"                          < $.E.).Y.m./.W.G.J./.!.C.C.!.!.J.F.F.m.K.P.K.K *                     ",
"                    2 6 n V :.^.oXx.G z.U.Y I G.!.C.R.b.x.Y M.U ) ( ) T C B u 3 &               ",
"                      ' <.E.|.XXOXE Z.E Z.M.n.E c.!.v.c.E A.J.) m.J.D.D.,.1.' u                 ",
"                      * A -.I. Xx.H.R.n.U.I.B.z.v.C.c.v.n.G.Y.v.N.) N.I.K.O.} +                 ",
"                      : V ( m.Z.H.H.C.Z.G.z.B.Z.G.x.M.Z.U.c.B.J.L.U ) ( %.K v +                 ",
"                5 3 M b K N.n.U.C.A.H.n.R R I.U.U.B.U.U.U.U R L.T.&.&.-.+.#.v 6 u 2 i           ",
"                  s <.1.K.B.U.U.A.A.Z.z.I I B.B.U.U.U.V.G.R I ) B.m.m.K.:.+.;.' u t             ",
"                    { 1.K.L.Z.R ) U E V.) P V.I B.B.B.I B.&.T L %.%.&.P -.A ! q 3               ",
"                    : _ ,.L.B.B.v.c.U B.D.L.U.F V.Z.V.F B.&.N.K.S.L I T J S v 7 O               ",
"                    u B O.^ ( ) v.F.F.F.D.D.Z.Z.z.E n.Z.B.D.N.( K.P.B.&.` +.} M u               ",
"                    M @.@.Q =.*.W.v.F.m.) &.B.Z.C.x.v.m.R V.&.T %.N.K.-.` +.@.M 3               ",
"                    + * v x H / U ) ) ( T R B.J.G.G.U.T.N.%.L P L H -.` +.V : - O               ",
"                      p.W x V H P U J / T T &.m.Z.I.N.N.%.L ` ` -.+.S S D z B u.                ",
"                      ; ' @.O.C ( / / / %.( ( L ) *./ ( H H H S ^ O.V A @.m 9 3                 ",
"                      a [ } } #./ *./ / ^ K +.( ( ( ( %.^ ^ S x D V b b W ' e 3                 ",
"                      # O M n c Q C C ^ K +.+.+.^ ^ ^ ^ C $.A D A } n N 7 - @ X                 ",
"                          6 M } Q #.V V Q ^ O.^ ^ ^ +.^ A Q A c B } W M e ,                     ",
"                          @ , 7 v B z _ Z A Z A ^ $.Q b V C Q v v M 7 8 3 X                     ",
"                            3 q M 1 1 N ! B b Z Z @.#.D b b m v M 7 9 8 5                       ",
"                              3 w w w 1 w z v B m ! z x b b B v 7 3 0 2                         ",
"                                5 0 w u w 1 1 1 n v v 1 v 1 1 M 9 8 ,                           ",
"                                  5 4 0 w u w M 7 7 v 1 1 7 7 9 > ,                             ",
"                                  . 2 # , u 6 w 9 9 9 M > M > 3 , X                             ",
"                                h 8.j 5 O 3 O , - 8 > ; 3 , + = g 2.a                           ",
"                              *X4XwX&XX.% 2 O # O O O O @ , O 2.{.h.g &X                        ",
"                            %X3XsXwX5X3X:X$ :X:X:X*X:X$X#X# ] h.}.p.k <X-X                      ",
"                          k yXtXfXqX%X0XqXrX0X0X0X2XtXwX4X% & o.u.y.X pX5X9.                    ",
"                          . #X1XyX*X6.#X2XuXdXjXgXhXiXjX% p t X = @ 8X8X$XX                     ",
"                          f.. % o 6.6.&X0XeXuXdXgXsXsXh k l 1Xt s @ O O O i.                    ",
"                          1X1X<X<Xo ..:X,X2X0XtXtX5Xh 6.r 2X-Xr X.s 6X7X6X;X                    ",
"                        i 5 g g O jX6.:XqXqXrX0XsX5 y h qXeXwXp 0.e * 6X9X=Xy.h.{.              ",
"                        aXaXX.k # u l r r l r $ y y y t & & r i a | m W W 9 e {.f.l.            ",
"                      r.>XfXk.X.y y 6.7.w.w.7.7.w.5.e.5.8.8.5.d ..o.}.}.4.4.W p.$X4XwX          ",
"                      i e.r.i i d k e.j.@X@Xj.k.g.0.g.d.9.g d | 2.y.}._._.a.e $X#X#X<X#X        ",
"                        j 9.% o r h 6.e.s.w.6.s.e.6.0.0...g p.p.t._.}.a.'.3.| h.r.h.<Xr.        ",
"                          %     % d 8.8.e.8.6.8.6.0.q.g e | ]  . .W '.a.y.3.g f.>X8Xg.          ",
"                                p t h i d y u f y f i e e < W q e o.2.2.2.q.e o f.4Xl.          ",
"                                  . . # @ * + * @ X # = * * * * O O X O X X     o %Xg.          ",
"                                      q.`.7X6X`.t.  2.{.7X6X'.u.                  o             ",
"                                      @  .3.;.;.@   5 | W [ <.=                                 ",
"                                      @ ;.Q.Q.;.+   @ 3.u.~.[ *                                 "
};
