/* XPM */
static char *player_right1671474733[] = {
/* columns rows colors chars-per-pixel */
"48 48 227 2 ",
"   c None",
".  c #040001",
"X  c #0C0101",
"o  c #070507",
"O  c #130200",
"+  c #1B0201",
"@  c #1C0509",
"#  c #180E15",
"$  c #230201",
"%  c #2B0002",
"&  c #230709",
"*  c #330300",
"=  c #390704",
"-  c #2B150E",
";  c #38140C",
":  c #291818",
">  c #331413",
",  c #3C1514",
"<  c #341B19",
"1  c #3B1C1B",
"2  c #3B1A11",
"3  c #36211C",
"4  c #0D0A28",
"5  c #180F27",
"6  c #251B27",
"7  c #361A25",
"8  c #2B112C",
"9  c #2E2323",
"0  c #3C2323",
"q  c #372627",
"w  c #322E34",
"e  c #4A0D02",
"r  c #430E0B",
"t  c #450A03",
"y  c #550C0B",
"u  c #4B140D",
"i  c #48160A",
"p  c #53130B",
"a  c #571809",
"s  c #431212",
"d  c #4A1A15",
"f  c #431B1B",
"g  c #4A1615",
"h  c #541513",
"j  c #5C1613",
"k  c #5B1B13",
"l  c #5B1D1B",
"z  c #551B17",
"x  c #490E12",
"c  c #65140C",
"v  c #771A0E",
"b  c #631D1B",
"n  c #681B15",
"m  c #741C15",
"M  c #7A1C15",
"N  c #482219",
"B  c #582519",
"V  c #5A2C16",
"C  c #64231C",
"Z  c #6C211D",
"A  c #642316",
"S  c #73221C",
"D  c #7B231B",
"F  c #75261A",
"G  c #491E23",
"H  c #591E20",
"J  c #611E21",
"K  c #4A2324",
"L  c #462826",
"P  c #5B2322",
"I  c #562A2A",
"U  c #5D2C2A",
"Y  c #562626",
"T  c #54302A",
"R  c #413437",
"E  c #573435",
"W  c #652223",
"Q  c #6A2422",
"!  c #6A2A2B",
"~  c #662927",
"^  c #752623",
"/  c #782926",
"(  c #6A3A2B",
")  c #79332A",
"_  c #652E33",
"`  c #6D3432",
"'  c #693B39",
"]  c #7A3939",
"[  c #5D433D",
"{  c #794726",
"}  c #6B4739",
"|  c #794539",
" . c #70513F",
".. c #181D45",
"X. c #1D254C",
"o. c #242855",
"O. c #342F4E",
"+. c #3E3B69",
"@. c #4B345A",
"#. c #483546",
"$. c #433A67",
"%. c #3C4054",
"&. c #464649",
"*. c #535150",
"=. c #664642",
"-. c #795949",
";. c #685958",
":. c #775955",
">. c #744D48",
",. c #7D6456",
"<. c #524A73",
"1. c #664F6E",
"2. c #686564",
"3. c #766765",
"4. c #6E6C72",
"5. c #757376",
"6. c #841D16",
"7. c #82241A",
"8. c #872519",
"9. c #8B2D2B",
"0. c #872A24",
"q. c #972C27",
"w. c #8D3226",
"e. c #86322A",
"r. c #963629",
"t. c #833836",
"y. c #933C34",
"u. c #983732",
"i. c #A2382E",
"p. c #814B2C",
"a. c #874538",
"s. c #954238",
"d. c #885533",
"f. c #A64537",
"g. c #865947",
"h. c #8B5D53",
"j. c #904947",
"k. c #AA564C",
"l. c #B75647",
"z. c #B25E56",
"x. c #84664E",
"c. c #886856",
"v. c #986C5A",
"b. c #98715A",
"n. c #8D7054",
"m. c #A86A56",
"M. c #BB645A",
"N. c #896B65",
"B. c #97776D",
"V. c #9A7974",
"C. c #AC6A62",
"Z. c #B66E65",
"A. c #C45952",
"S. c #C05A4E",
"D. c #C26354",
"F. c #C6665C",
"G. c #D06A5E",
"H. c #C96F65",
"J. c #95877A",
"K. c #CF9574",
"L. c #E2857D",
"P. c #73739C",
"I. c #7476A9",
"U. c #98969A",
"Y. c #928F91",
"T. c #B59A91",
"R. c #B0948C",
"E. c #9596A1",
"W. c #A99DA1",
"Q. c #A7A7AB",
"!. c #B7B4B9",
"~. c #B4ABB0",
"^. c #CA9C8B",
"/. c #C59989",
"(. c #D59A8C",
"). c #C89D94",
"_. c #D19189",
"`. c #E89587",
"'. c #E19C91",
"]. c #F29C8D",
"[. c #DBA287",
"{. c #CBA498",
"}. c #D4A799",
"|. c #CCAD96",
" X c #E7A898",
".X c #EBB89C",
"XX c #F4B99D",
"oX c #E1AC8A",
"OX c #D3B7A7",
"+X c #CFAFB1",
"@X c #E8B9A4",
"#X c #F5BDA7",
"$X c #E9BDB5",
"%X c #F4C39C",
"&X c #F6C89E",
"*X c #EEC09E",
"=X c #EDC4AB",
"-X c #F4C4A4",
";X c #F9C4A3",
":X c #FBC9AD",
">X c #F7C6A8",
",X c #EBC6B3",
"<X c #FDC5B0",
"1X c #FECCB4",
"2X c #F6CCBB",
"3X c #EAD3BD",
"4X c #FCD5BA",
"5X c #B5B7C4",
"6X c #B3B6D0",
"7X c #B2B2E4",
"8X c #C6BDC8",
"9X c #BDC3E3",
"0X c #C2C2C3",
"qX c #FAC9C4",
"wX c #FED5C3",
"eX c #FDDBC3",
"rX c #FDD3CB",
"tX c #F8D7C8",
"yX c #FFDBD3",
"uX c #FCDBD8",
"iX c #FDE0C8",
"pX c #FFE4D8",
"aX c #D1DBFE",
"sX c #E4DEE0",
"dX c #DBE1F9",
"fX c #E7E4EA",
"gX c #FFE6E8",
/* pixels */
"                                              E T gX                                            ",
"                                              < =.E                                             ",
"                                              = H ] =.Y                                         ",
"                              9 @ L 1 f , = , z x j ] ] >.K T           =.                      ",
"                                0 T ' ` ] j.] Q y y n t.M._.! Y ~ s Y | I                       ",
"                                % d Q ] t.j.M.M.u.0.v m y.z.k.t.Q k | m.| (                     ",
"                    : 7 1 ; s * d k S m 0.r.u.l.S.D.r.D D r.k.M.y.c s.`.Z.B                     ",
"                      K L I } ` ) t.9.u.q.6.6.q.f.l.l.q.6.7.9.`.F.0.w.`.`.a.                    ",
"                      + f U B ] e.q.q.A.G.S.l.r.i.r.i.f.f.8.v K.L.w.8.D.].m.P                   ",
"                      uX$ g j Z D 8.q.i.S.G.D.M.f.r.8.r.f.r.v 8.F.M.6.8.].K.`                   ",
"                      L g z b ^ 0.8.q.q.q.q.k.l.G.M.F 8.p.w.F v s.z.8.8.M. Xj.G                 ",
"                      I P ! ^ t.r.u.q.q.q.q.f.9.s.s.s.) F F a a A ) n D 0.Z.] G                 ",
"                    K I H b m S M 6.6.6.q.M M m F F ) / A a t B i k e n ^ t.` '                 ",
"                  0 L I ! J ^ ^ ^ 0.9.q.u.0.9.S Z ^ h j B z yX$Xd 2 e C ~ ] U                   ",
"                . @ + $ r h n ^ 7.9.u.9.9.S ^ n n j h qXyX* wXrXtXpXr h J P ,                   ",
"                    < f P W ^ t.9.s.9./ ^ J e.t.) W t yXrXrXyXpXtXtXyXx z g ,                   ",
"                    I P ! J ^ J J / ^ y Q W Q ] ] ] ~ = rXpXwXiX4XiX4XrXV V.                    ",
"                  G _ _ b b J c / J k p ~ W ! J J ! e u rX2XeX4XiX4X4X4X,X,.                    ",
"                0 E G Y P j b Q n c u N z B b b x b e <X[.m.{ { d.K.;X.X2XJ.                    ",
"              X : 7 G s r l l j b e = * * * l b e t k [.[.&X>X&X[.K.XX-X}.                      ",
"                  O > f s x W Q Q b | c.}.m.a A a 1X.X>XoXp.p.p.{ d.:X-Xn.                      ",
"                      > , d U ! J C h.@X2X}.e B e @X1X.X{ | g.* = | %X=Xn.                      ",
"                      O N E U H W h % rXrX^.t A a -XoX1Xv.^.}.% >.}..X4Xn.                      ",
"                      < 0 I d g g x = h.,X(.1Xi = <X<X>Xv.^.gXG % {.=X=Xn.                      ",
"                      : : 3 , f s s d % m.(.<X#Xa >X:X.Xm./.gX:.$ ).wX,X^.                      ",
"                    o X O & < > , g = }.* = #X<XoX#X;X;X:X,XqXR.+X$XeXeXOX                      ",
"                            + < 1 f g r '.'.`.XX1X&X%X&X-X-X4X,XwXeXtXiX3XJ.                    ",
"                                : 1 s t h '.(.#X#X.X%X&X&XXX-X1X4XeXtX,XT.                      ",
"                                  - 1 N i t (.(.1X#XXX;X&X;X.X>X<X-X@X{.                        ",
"                                    O < ; 2 f ^./.[.>X@X-X-X-X>X@X}.N.                          ",
"                                        + O N.B./.).{.}./.}.{.n.V.$                             ",
"                                        w < + $ $ $ $ $ + + $ -                                 ",
"                                        U.+XR : N.V.=.9 2.0XR ;.                                ",
"                                      &.!.~.!.fX7 q ,.X Y.4.Y.&.                                ",
"                                      o Q.8XsXsX4.O . . 5XE.Q.E.*.                              ",
"                                        X O O X O : 9 Q.fX5X5XQ.%.                              ",
"                                        n.|.T. .$ =.: 8X5X5X5XQ.                                ",
"                                        -.T..X2X>.N.# 0X5X7XdXw                                 ",
"                                      N  .}.yXqXT.;.: E.9XaXdX%.                                ",
"                                    3.3.:.{.rXrXOX;.5 O.X.o...4                                 ",
"                                  &.3.U.+ |.rX+XV.1.#.$.P.I.9XP.                                ",
"                                . *.0X2.9 O T.+X& 5 @.+.+.o.+.4                                 ",
"                                  *.Y.2.o q + @ #.@.P.$.O.4 X.4                                 ",
"                                    o 4.!.. + & G 8 5 8 6 . #                                   ",
"                                      5.Y.O =.n.$XqXuX:.c.;.                                    ",
"                                        X X ,.|.$X$Xh.j.n.3.                                    ",
"                                            & V V ( N * i N                                     ",
"                                            O [ -.x.} ; 2 L X                                   "
};
