/* XPM */
static char *_c6362284a574324c5b6d087141ce892rD3r8005cDZe9rrR[] = {
/* columns rows colors chars-per-pixel */
"48 48 10 1 ",
"  c None",
". c #14182E",
"X c #52333F",
"o c #2B2B45",
"O c #3A3F5E",
"+ c #8F4D57",
"@ c #BD6A62",
"# c #4FA4B8",
"$ c #FFC2A1",
"% c #DFE0E8",
/* pixels */
"               ..................               ",
"               ..................               ",
"               ..................               ",
"            ...OOOOOOOOOOOOOOOOOO...            ",
"            ...OOOOOOOOOOOOOOOOOO...            ",
"            ...OOOOOOOOOOOOOOOOOO...            ",
"         ...OOOOOOOOOOOOOOOOOOOOOOOO...         ",
"         ...OOOOOOOOOOOOOOOOOOOOOOOO...         ",
"         ...OOOOOOOOOOOOOOOOOOOOOOOO...         ",
"         ...OOOOOOOOOOOOOOOOOOOOOOOO...         ",
"         ...OOOOOOOOOOOOOOOOOOOOOOOO...         ",
"         ...OOOOOOOOOOOOOOOOOOOOOOOO...         ",
"         ...OOOOOOOOOOOOOOO$$$OOOOOO...         ",
"         ...OOOOOOOOOOOOOOO$$$OOOOOO...         ",
"         ...OOOOOOOOOOOOOOO$$$OOOOOO...         ",
"         ...OOOOOOOOOOOOOOO$$$$$$$$$...         ",
"         ...OOOOOOOOOOOOOOO$$$$$$$$$...         ",
"         ...OOOOOOOOOOOOOOO$$$$$$$$$...         ",
"         ...OOOOOOOOOOOOOOOoooooo$$$...         ",
"         ...OOOOOOOOOOOOOOOoooooo$$$...         ",
"         ...OOOOOOOOOOOOOOOoooooo$$$...         ",
"         ...OOOOOO$$$$$$OOO$$$...$$$...         ",
"         ...OOOOOO$$$$$$OOO$$$...$$$...         ",
"         ...OOOOOO$$$$$$OOO$$$...$$$...         ",
"            ...OOO$$$@@@OOO$$$...@@@...         ",
"            ...OOO$$$@@@OOO$$$...@@@...         ",
"            ...OOO$$$@@@OOO$$$...@@@...         ",
"               ...OOO$$$$$$$$$$$$...            ",
"               ...OOO$$$$$$$$$$$$...            ",
"               ...OOO$$$$$$$$$$$$...            ",
"               ......XXX@@@......               ",
"               ......XXX@@@......               ",
"               ......XXX@@@......               ",
"               ...%%%...XXX+++%%%...            ",
"               ...%%%...XXX+++%%%...            ",
"               ...%%%...XXX+++%%%...            ",
"               ...$$$@@@...+++%%%...            ",
"               ...$$$@@@...+++%%%...            ",
"               ...$$$@@@...+++%%%...            ",
"               ...$$$$$$...######...            ",
"               ...$$$$$$...######...            ",
"               ...$$$$$$...######...            ",
"                  ......@@@@@@...               ",
"                  ......@@@@@@...               ",
"                  ......@@@@@@...               ",
"                        ......                  ",
"                        ......                  ",
"                        ......                  "
};
