/* XPM */
static char *tutorial_sample59k1671471729[] = {
/* columns rows colors chars-per-pixel */
"48 48 41 1 ",
"  c #7D9727",
". c #7E9926",
"X c #7D9628",
"o c #7F9928",
"O c #8FB50F",
"+ c #95BF07",
"@ c #90B70F",
"# c #93BC0C",
"$ c #8CAF17",
"% c #86A61E",
"& c #87A81E",
"* c #8AAC1D",
"= c #8EB314",
"- c #8DB21A",
"; c #90B713",
": c #92B912",
"> c #91B51B",
", c #94B91C",
"< c #9BBE1F",
"1 c #819D26",
"2 c #809B28",
"3 c #85A323",
"4 c #89A625",
"5 c #87A821",
"6 c #8AAA21",
"7 c #90AF23",
"8 c #93B322",
"9 c #97B821",
"0 c #9ABC20",
"q c #96C107",
"w c #96C009",
"e c #97C011",
"r c #9BC314",
"t c #9EC21E",
"y c #A3CA15",
"u c #A2C51E",
"i c #A5CA1D",
"p c #A9CE1D",
"a c #AAD01C",
"s c #9EC120",
"d c #A1C420",
/* pixels */
"3:633131=-1:*;31>-=#;7947;;13&%1*:i625#$3#333313",
"%;&6111.-$3#*$33#&$#;6708&;18*11>:d72-=*%;5&1111",
"%$-*.314;%&#*=65#3=::16p4&$1<>11w>061>%%5=-&131&",
"%*#&351=$3;#*w65:*=*#18p43**u:34#-88*:31%$#3&31:",
"3-#5,33=3%:=*#35=+*5:&9u3339u=53+$48-=114;;&;14O",
"&==:w33$1--*=w1-:=&5;:,<4%.0i=-1;-1>-=31*;=#:13*",
"--$##3.-3;&%-q3-=&3%=#*95530u$*1--3:-=31;*=#:13-",
"#**:#3.3>;51&#4;-313*#6,36&9u*%1-$3:$-53:5-#:326",
"#3-=#333:=&13@3--111&#;-26>8<&35;%&#-;*4@3==,333",
":*:&+33.::31%=3$=3313=+41*:6941;$3;#&#*5@->*:331",
":;-3#*6o$#33%&3&=5513=#326:3633=35;=-#3&;#*6;-5o",
":=-3=:6X5#33&32*;-&11-@32*=5613$1--&=w36;=&&=;5o",
";%33$#63*@31-3.:*:511-;11$$>333*5:&%$q5-;&%3$#33",
"=113&w6-&=52,51=5:323--11&=:1*14:=513#3=-.33$w5-",
"=311%#;-1--X--3*&#516:-13&:;*>23e=&.3;3--..3&#:-",
"-5113=#&.*:2$=133:33---11--;#>18:#31%$3*-33.%=#3",
";6311$#*.,:.*-3.3O&3:--.5:*=+*99&#%3%%33=3313==%",
":*521*=38t=3$*1o3:&*#*$3*,&=#-d4%@31*31*:*311$;3",
"*-511&-3d,$6*33o-=3-:-#3*-5;;rd53=32-3o;*-3116-4",
"5:51.--6s$$:3333#35#=6+3-=;6=,043$3o--1=6:313-68",
"5#513,-49&=:3-.&=1-=--#1-=#3-;,53%32$-3&6w3.5:6-",
"3#52*:-36*:-,-.6&3:&$=:1;-=3*=;31*11*>315#3.*:63",
"3@53---.3=-;w-.1-5#3%=#3:-%3&=:.4*31*-113@33>-6.",
"3;&4:$-15:*=:-1o6:=3.*:3#*o33;:6*5*1*&733@&-:--1",
"3;%*#*=3*:3=+-o33+$3.&-3=*311-:#36,1%>9X*O3-:$$3",
";$%-:*#3-;5;:-331#=%1*&3$-3315#=16@11p61:&%:>*#3",
";35#=*q3::#*:,&3.:=33&33&+3.13@=1*#18a35;3*#--#3",
"$1---;#1-#w4>#-31*=14*11-q3113;$1&=5,03&$1--$::1",
"$3#4&=#1::#3-#:11-$13-13:w311*;31*$=4834&3:3*@:1",
"6*;33=w3#-&3*##36&&63:35=w313>-.3&=:3-13-*;33;:4",
"6#=31*#5w*214#:>*1&0.;*3*+31-;-.3*:---14-#-11-#&",
"3w=32&#3#-136=ww*.00o=*13@53---13--=w-383w$31$-4",
"1#=335$3;:1875q:63i9.$*11@&5:--15:&=#*881w$31$*3",
"1-=35333=:1d43q:5>i81*514@3-:*$3*:%=+*d8.:-35&33",
"1*=13-31:=5p33;=3ed71%>1;$3;:-+3--&;#-d8o--.&&.3",
".%$31;13q&8u11*%3w06.303:34#=*#1-=:5>>p8o$*.3,o5",
"3333o:3&#*7<33313#,8.80%=1->$=:1>=#4$;y91%&13#3*",
"3*331=-3#66036313=-8X0d3*1:5*;#1:==7&;y83%313;6&",
"--213--1-*486-11&=:6 udX-*:3%=#3:&>83;r8-*113=*1",
"--311*-.:-15>>113$#3&usX6#=31*=3#308.=r,--1.3=*1",
"6:423*&1:*.5-:11&;;*;0d23#$31*-3;5i71-#:6:313&&1",
"5:&23331;-1--;11*>;#:9016#=31*&3$;p6X*#-5#313333",
"4#531111--1:*=31:*=#;6888=;1&&31$:u7X5#$3#331111",
"%=**1111=*4#-=&3#3$#:46d6&=19-11;,d61>$&&;&61113",
"%$=*141*;%*#*:*5#3;;:16p4&$3t:13#>973:335$:5131-",
"3*#5&31;%3;#5w5&@--5:3,i43%7d=53q>77*:13%=#3*33:",
"3-#-#33=35;--#35;#&%:*9t431<i=*3#*47>;11&=:-:13=",
"*=-##33=1>*%=w3-;;%4;#><4&.<i$*1;-1;-;11--=#:13*"
};
