/* XPM */
static char *coin_41672247740[] = {
/* columns rows colors chars-per-pixel */
"32 32 195 2 ",
"   c None",
".  c #7F6C06",
"X  c #7F6D09",
"o  c #7E7400",
"O  c #7A6C16",
"+  c #7C6C16",
"@  c #7E6E16",
"#  c #766E1C",
"$  c #7C6A18",
"%  c #766A24",
"&  c #786C22",
"*  c #7A6C24",
"=  c #786E26",
"-  c #746C28",
";  c #74682E",
":  c #726834",
">  c #786C34",
",  c #786C3A",
"<  c #806E06",
"1  c #816E0A",
"2  c #847500",
"3  c #D7BC0D",
"4  c #DEBA0C",
"5  c #D9BE0D",
"6  c #D1BF17",
"7  c #D4BC14",
"8  c #D6BE14",
"9  c #D7BF15",
"0  c #DBBB10",
"q  c #DCBE12",
"w  c #DDBF13",
"e  c #D7BA18",
"r  c #DCBB18",
"t  c #DDBC19",
"y  c #DCBC1B",
"u  c #D7B72E",
"i  c #D5BA2D",
"p  c #D5BA2F",
"a  c #D8BE2B",
"s  c #D6B931",
"d  c #D2B93B",
"f  c #D2B83F",
"g  c #CEC30F",
"h  c #D3C50A",
"j  c #D5C00F",
"k  c #D9C214",
"l  c #EEDB29",
"z  c #EDDE2B",
"x  c #EEDF2C",
"c  c #F6DD2B",
"v  c #F1D92F",
"b  c #F0DA2E",
"n  c #F5D92D",
"m  c #F0DF2D",
"M  c #EFDF32",
"N  c #EEDD37",
"B  c #F4D733",
"V  c #F5D737",
"C  c #F3DB30",
"Z  c #F2DA32",
"A  c #F5DA31",
"S  c #F6DA31",
"D  c #F6DB32",
"F  c #F2DD32",
"G  c #F4DC32",
"H  c #F5DD33",
"J  c #F7DC33",
"K  c #F4DE32",
"L  c #F0D935",
"P  c #F2DB35",
"I  c #F2D936",
"U  c #F2DB37",
"Y  c #F4D934",
"T  c #F6D935",
"R  c #F5D836",
"E  c #F2DD34",
"W  c #F4DD35",
"Q  c #F5DD35",
"!  c #F5DE36",
"~  c #F6DE36",
"^  c #F8DC33",
"/  c #F8DD36",
"(  c #F8D73A",
")  c #F1D939",
"_  c #F2DA3A",
"`  c #F7DB39",
"'  c #F5DC39",
"]  c #F5DC3A",
"[  c #F4DE3A",
"{  c #F5DD3D",
"}  c #F8DD38",
"|  c #F8DA3C",
" . c #F8DC3D",
".. c #EBE026",
"X. c #EFE129",
"o. c #F3E02C",
"O. c #F3E02E",
"+. c #F1E22F",
"@. c #F9E02C",
"#. c #F4E031",
"$. c #FAE033",
"%. c #F6E138",
"&. c #FFF73B",
"*. c #FFF63E",
"=. c #F9FB38",
"-. c #FFFA39",
";. c #FFFA3A",
":. c #FEFB3A",
">. c #FFFB3B",
",. c #FEFF3B",
"<. c #FFF83E",
"1. c #FFFA3F",
"2. c #FFFD3C",
"3. c #FCFF3C",
"4. c #FFFE3C",
"5. c #FFFF3C",
"6. c #FFFF3D",
"7. c #FEFE3E",
"8. c #FFFE3F",
"9. c #FEFF3F",
"0. c #CAB84C",
"q. c #CDB84F",
"w. c #ECD845",
"e. c #EED847",
"r. c #ECD74A",
"t. c #EDD74E",
"y. c #EED94A",
"u. c #EEDC4A",
"i. c #E9D94E",
"p. c #ECDD4E",
"a. c #EEDD4F",
"s. c #F0D747",
"d. c #F7DA41",
"f. c #F6DC41",
"g. c #F5DE40",
"h. c #F0D844",
"j. c #F1D847",
"k. c #F4DC46",
"l. c #F0DA49",
"z. c #F3DA49",
"x. c #F4DB4B",
"c. c #F4DA4F",
"v. c #F3DD4C",
"b. c #EAD757",
"n. c #EBD855",
"m. c #ECD855",
"M. c #E7D559",
"N. c #E7D45E",
"B. c #EAD659",
"V. c #ECDA5E",
"C. c #F1DA50",
"Z. c #F3DC50",
"A. c #F1D955",
"S. c #FFF542",
"D. c #FFFA42",
"F. c #FEFF41",
"G. c #FFFF41",
"H. c #FFFF43",
"J. c #FFF847",
"K. c #FFF947",
"L. c #FFFB47",
"P. c #FFFC44",
"I. c #FFFD44",
"U. c #FFFF44",
"Y. c #FFFF45",
"T. c #FFFA48",
"R. c #FFFB49",
"E. c #FFFA4A",
"W. c #FFFD52",
"Q. c #FEF95D",
"!. c #E7D360",
"~. c #E5D462",
"^. c #E8D763",
"/. c #EBD764",
"(. c #E9D864",
"). c #EBDA66",
"_. c #E7D66A",
"`. c #E0D46E",
"'. c #E6D46E",
"]. c #E8D368",
"[. c #E9D469",
"{. c #EAD56A",
"}. c #E8D76B",
"|. c #E8D56C",
" X c #EAD76E",
".X c #ECD868",
"XX c #E5DA70",
"oX c #E2D974",
"OX c #E8D77B",
"+X c #E2D97C",
"@X c #FFF662",
"#X c #FBF86B",
"$X c #FEEF7C",
"%X c #FFF575",
"&X c #FAF389",
/* pixels */
"                          % + 1 . $                             ",
"                          OX_.^.^. X&                           ",
"                        ).r.v.w.u.p.n._.                        ",
"                      [.z.U _ [ N N U x. X                      ",
"                    ~.c.d.| R Q z T.Z { s.N.                    ",
"                  oXC.| ( R Q #.P.&.S.$.S a 0.                  ",
"                + B.k.} y A z ;.,.H.4.*.5 e p 1                 ",
"                [.z._ 7 Q O.,.4.,.4.;.<.@.4 r f                 ",
"              , V.U A k z P.4.,.3.=.P.m v q 4 p >               ",
"              : M.g._ 6 R.4.4.H.H.P.o.K A ^ 4 u ;               ",
"                 XA.b.2 T.;.H.P.T.M b 9 R R y d                 ",
"                O (.%Xo g 4.<.T.E ! Q Q A g.s <                 ",
"                  &XQ.P...h D.o.c v 8 R [ z.q.                  ",
"                    #XW.K.K.l j 3 k ^ [ w.!.                    ",
"                      $X@XQ %.E } B / h.].                      ",
"                        ].m.i.p.u.Z.t..X                        ",
"                          = # +XXX`.*                           ",
"                                -                               ",
"                                                                ",
"                                                                ",
"                                                                ",
"                                                                ",
"                                                                ",
"                                                                ",
"                                                                ",
"                                                                ",
"                                                                ",
"                                                                ",
"                                                                ",
"                                                                ",
"                                                                ",
"                                                                "
};
