/* XPM */
static char *coin_61672247740[] = {
/* columns rows colors chars-per-pixel */
"32 32 187 2 ",
"   c None",
".  c #7C6C00",
"X  c #7E6E0C",
"o  c #7C6E0E",
"O  c #7A7406",
"+  c #78720C",
"@  c #767018",
"#  c #7C701C",
"$  c #74682E",
"%  c #726C2E",
"&  c #746832",
"*  c #706A34",
"=  c #746A36",
"-  c #786C36",
";  c #836F00",
":  c #876C00",
">  c #886E00",
",  c #816E0A",
"<  c #867000",
"1  c #8A7000",
"2  c #887300",
"3  c #8B7300",
"4  c #8D7100",
"5  c #8E7300",
"6  c #907100",
"7  c #806C16",
"8  c #806A1C",
"9  c #817010",
"0  c #D7BA00",
"q  c #D6BD01",
"w  c #D9BB03",
"e  c #DABA03",
"r  c #DCBA01",
"t  c #DDBB01",
"y  c #DDBB02",
"u  c #DBBD03",
"i  c #DDBC00",
"p  c #DEBD00",
"a  c #DFBE01",
"s  c #DCBD02",
"d  c #DCBD03",
"f  c #DEBC02",
"g  c #DEBC03",
"h  c #DDBE03",
"j  c #DEBF02",
"k  c #DCB905",
"l  c #DABC04",
"z  c #DFBD04",
"x  c #DEBF04",
"c  c #DDBD06",
"v  c #DDBF07",
"b  c #DEBE07",
"n  c #D7BC0B",
"m  c #D7BE0C",
"M  c #DDBD08",
"N  c #DCBE08",
"B  c #D9BB0F",
"V  c #DBBB0E",
"C  c #DCBE0E",
"Z  c #DDBE0E",
"A  c #D6BC11",
"S  c #D4BC12",
"D  c #D8B910",
"F  c #D9BA12",
"G  c #D9BD11",
"H  c #DABC10",
"J  c #DBBD11",
"K  c #D8BC13",
"L  c #DABE12",
"P  c #DDBD10",
"I  c #DEBD10",
"U  c #DEBE11",
"Y  c #DCBE12",
"T  c #DBBC14",
"R  c #DABE14",
"E  c #DBBF15",
"W  c #D9BC16",
"Q  c #DABF16",
"!  c #DCBD14",
"~  c #DCBD15",
"^  c #DDBC17",
"/  c #D7BB1C",
"(  c #D4BA1F",
")  c #D0BC1F",
"_  c #D6BE1E",
"`  c #D8BA1A",
"'  c #DBBB1B",
"]  c #DABD19",
"[  c #DDBE18",
"{  c #DEBB1F",
"}  c #DBBF1D",
"|  c #DBBD1F",
" . c #E0BF00",
".. c #E0BE04",
"X. c #E1BF05",
"o. c #E1BC09",
"O. c #D3BA22",
"+. c #D4BA25",
"@. c #D3BE25",
"#. c #D5BD25",
"$. c #D9BB25",
"%. c #D0B62B",
"&. c #D0B62D",
"*. c #D3B82B",
"=. c #D6BC2B",
"-. c #D2BB2D",
";. c #D6BB2C",
":. c #D3BE2D",
">. c #D6BD2C",
",. c #D6BD2F",
"<. c #CEB831",
"1. c #CEBC36",
"2. c #CFBC3B",
"3. c #CCBA3E",
"4. c #D1B436",
"5. c #D0B736",
"6. c #D3B930",
"7. c #D3B931",
"8. c #D5BB32",
"9. c #D1B935",
"0. c #D1BB34",
"q. c #D1BE34",
"w. c #D0BC39",
"e. c #D0B83E",
"r. c #D7C207",
"t. c #DEC103",
"y. c #DDC105",
"u. c #DFC107",
"i. c #D7C109",
"p. c #DFC109",
"a. c #DFC10B",
"s. c #DEC010",
"d. c #E2C006",
"f. c #DBC124",
"g. c #F3D72D",
"h. c #F7D62F",
"j. c #F6DF2D",
"k. c #F8DA2A",
"l. c #FCDB2E",
"z. c #EFDE38",
"x. c #EFDA3F",
"c. c #F5D737",
"v. c #F6DA31",
"b. c #F9DD33",
"n. c #F5D938",
"m. c #F7DB39",
"M. c #F1DA3F",
"N. c #F7D93D",
"B. c #F8DA3C",
"V. c #F9DD3E",
"C. c #FFFA3E",
"Z. c #CFBB42",
"A. c #CDB845",
"S. c #CAB84A",
"D. c #D1B740",
"F. c #D2BD40",
"G. c #CBB550",
"H. c #D1B853",
"J. c #EED449",
"K. c #EBD84B",
"L. c #F6D842",
"P. c #F4DF46",
"I. c #F2D948",
"U. c #F4DC48",
"Y. c #E4DA57",
"T. c #EFD950",
"R. c #ECD75A",
"E. c #EAD55E",
"W. c #F3D853",
"Q. c #FFFB41",
"!. c #FFF847",
"~. c #FFFD49",
"^. c #FFF94E",
"/. c #E8D765",
"(. c #E9D862",
"). c #EEDA61",
"_. c #E9D866",
"`. c #E8D76F",
"'. c #E8D869",
"]. c #E7D573",
"[. c #E4D874",
"{. c #FFF660",
"}. c #FFF863",
"|. c #FEF866",
" X c #FBF56D",
".X c #FBF674",
"XX c #FDF183",
/* pixels */
"                                                                ",
"                                = *                             ",
"                          # o '.).E.`.                          ",
"                        ].R.K.M.c.V.U.(.                        ",
"                      _.W.L.m.b.l.V F #.q.                      ",
"                    /.I.N.v.k.M o.c d.m E 9.                    ",
"                  [.T.V.v.Y b j ..M H A Y ' 4.                  ",
"                @ Y.P.g.Z w y.j y c H 4 F ^ $.e.                ",
"                O {.z.j.w  .y b j j M E > =.! 7.-               ",
"                .X^.!.i.w  .j y y b u H < 9.] &.&               ",
"              % |.Q.C.q j j X.y y X.j E < 2.O.F.                ",
"                 X~.r.y.b c w j X.w Y / 1 1.5.,                 ",
"                + }.m w H Y p.j y P ;.4 L.>.H.                  ",
"                  XX@.E F 6 H Y Z ! : J.f.&.#                   ",
"                    . >.! F 4 1 > m.! ! ( F.                    ",
"                      S.+.| %.7.-.#.' $.e.                      ",
"                        G.-.| A ) q.A.7                         ",
"                          9 <.:.3.o                             ",
"                              $                                 ",
"                                                                ",
"                                                                ",
"                                                                ",
"                                                                ",
"                                                                ",
"                                                                ",
"                                                                ",
"                                                                ",
"                                                                ",
"                                                                ",
"                                                                ",
"                                                                ",
"                                                                "
};
