/* XPM */
static char *coin_21672247740[] = {
/* columns rows colors chars-per-pixel */
"32 32 145 2 ",
"   c None",
".  c #797300",
"X  c #7B7500",
"o  c #797600",
"O  c #7D7700",
"+  c #74700A",
"@  c #74740E",
"#  c #786E14",
"$  c #7E6C1A",
"%  c #7A6C1E",
"&  c #7C6C1C",
"*  c #707014",
"=  c #747014",
"-  c #747016",
";  c #78741C",
":  c #6E6C20",
">  c #766C22",
",  c #7A6E22",
"<  c #786C24",
"1  c #786E26",
"2  c #706E2A",
"3  c #767220",
"4  c #707420",
"5  c #767024",
"6  c #7A7220",
"7  c #746C30",
"8  c #706C34",
"9  c #806C12",
"0  c #806E18",
"q  c #D8BB00",
"w  c #DBBD00",
"e  c #D8BF00",
"r  c #DCBD02",
"t  c #D9BF06",
"y  c #DCBF0C",
"u  c #DCBC0F",
"i  c #DABB13",
"p  c #D9BD13",
"a  c #D8BE13",
"s  c #DDBD10",
"d  c #D3BD19",
"f  c #D2BF1A",
"g  c #D8BF1D",
"h  c #D7BF21",
"j  c #D1BE24",
"k  c #D3B92E",
"l  c #CCBA3C",
"z  c #CBBC3F",
"x  c #D2BA36",
"c  c #D4B934",
"v  c #D1B839",
"b  c #C9C50E",
"n  c #D3C001",
"m  c #D7C606",
"M  c #DAC303",
"N  c #DCC100",
"B  c #DFC405",
"V  c #C4C231",
"C  c #F1DD2E",
"Z  c #F2DE2F",
"A  c #ECDA3C",
"S  c #EFE02F",
"D  c #F5E02D",
"F  c #F0E130",
"G  c #F0E332",
"H  c #FDFF37",
"J  c #FFFF36",
"K  c #FFFE37",
"L  c #FFF838",
"P  c #FFF938",
"I  c #FFFA39",
"U  c #FFFB3B",
"Y  c #FFFD39",
"T  c #FFFE38",
"R  c #FFFF38",
"E  c #FEFF39",
"W  c #FFFF39",
"Q  c #FFFC3A",
"!  c #FFFC3B",
"~  c #FEFF3A",
"^  c #FFFF3A",
"/  c #FFF93D",
"(  c #FFFB3E",
")  c #FFFC3C",
"_  c #FFFF3E",
"`  c #FFFF3F",
"'  c #CDB84B",
"]  c #C4BC51",
"[  c #ECDE40",
"{  c #EDDD42",
"}  c #EADB44",
"|  c #E3D84B",
" . c #E6D85E",
".. c #FFFC40",
"X. c #FFFC41",
"o. c #FEFD41",
"O. c #FFFE40",
"+. c #FFFE41",
"@. c #FCFC42",
"#. c #FFFF43",
"$. c #FFFB47",
"%. c #FEFC45",
"&. c #FFFF44",
"*. c #FFFD46",
"=. c #FFFF48",
"-. c #FDFE4A",
";. c #FDF94F",
":. c #FBFE4F",
">. c #FFFC4F",
",. c #FBF756",
"<. c #FFFE51",
"1. c #FDFC52",
"2. c #FFFD52",
"3. c #F9F95D",
"4. c #FEF95D",
"5. c #FFF95E",
"6. c #FCFE5F",
"7. c #E8DC64",
"8. c #E5D76C",
"9. c #E7D96E",
"0. c #E3DA73",
"q. c #E6D97B",
"w. c #F6F664",
"e. c #FDF763",
"r. c #FEFB60",
"t. c #FBFB65",
"y. c #FFF966",
"u. c #FEFD65",
"i. c #FCF66A",
"p. c #FDF76B",
"a. c #FBFA6A",
"s. c #F8F96D",
"d. c #FAFB6F",
"f. c #F5F476",
"g. c #F3F578",
"h. c #F6F479",
"j. c #FBF67E",
"k. c #F6F879",
"l. c #FAFB79",
"z. c #FAF97B",
"x. c #FCF87D",
"c. c #F7F481",
"v. c #F4F387",
"b. c #F4F689",
"n. c #F9F788",
/* pixels */
"                                                                ",
"                                                                ",
"                              , >                               ",
"                          % 9. .7.q.                            ",
"                        x.y.} { { | 0.                          ",
"                      b.3.*.G F *.2.y.+                         ",
"                    4 g.u.2.) ) ) @.-.s.                        ",
"                    * l.X ,.*.R R ) J 6.2                       ",
"                    = h.X p.-.R R J J y.7                       ",
"                    = j.. p.-.R ) ) P 4.<                       ",
"                    ; f.O 4.*.) S C D A 9.                      ",
"                      n.V >.@.@.C a y g l 6                     ",
"                      5 w.*.*.P U t r i v &                     ",
"                      8 d.@.U U U M r s c 0                     ",
"                        k.1.) R P m q s k 9                     ",
"                        @ t.b R ) e B a x $                     ",
"                          c.1.R P N e f '                       ",
"                          3 a.>.f h j z                         ",
"                            v.z.] # 1                           ",
"                              :                                 ",
"                                                                ",
"                                                                ",
"                                                                ",
"                                                                ",
"                                                                ",
"                                                                ",
"                                                                ",
"                                                                ",
"                                                                ",
"                                                                ",
"                                                                ",
"                                                                "
};
