/* XPM */
static char *coin_71672247741[] = {
/* columns rows colors chars-per-pixel */
"32 32 167 2 ",
"   c None",
".  c #7E7008",
"X  c #7C6C14",
"o  c #7E6E14",
"O  c #766A1C",
"+  c #7E6C1A",
"@  c #786E1E",
"#  c #707016",
"$  c #766C22",
"%  c #7C6C20",
"&  c #746A28",
"*  c #766A2C",
"=  c #766A2E",
"-  c #726C2E",
";  c #746C2E",
":  c #766C2E",
">  c #7E7022",
",  c #7C702C",
"<  c #766832",
"1  c #766C30",
"2  c #786C30",
"3  c #876D00",
"4  c #896E00",
"5  c #806E08",
"6  c #806E0A",
"7  c #877100",
"8  c #897000",
"9  c #8B7000",
"0  c #D6BF00",
"q  c #DBBF03",
"w  c #DCBD00",
"e  c #DDBE03",
"r  c #DBBB04",
"t  c #DABC04",
"y  c #DFBD04",
"u  c #DEBF05",
"i  c #DCBC07",
"p  c #D7BD08",
"a  c #DBBB08",
"s  c #DCBB0A",
"d  c #DBBE0A",
"f  c #DBBE0B",
"g  c #DDBD08",
"h  c #D9BE0D",
"j  c #DEBD0C",
"k  c #D6BA11",
"l  c #DABA11",
"z  c #DBBB12",
"x  c #DABC10",
"c  c #D8BE11",
"v  c #DABE12",
"b  c #D9BE15",
"n  c #DDBD14",
"m  c #D3BB1B",
"M  c #D4BE1B",
"N  c #DBBE18",
"B  c #DABF18",
"V  c #D8BC1B",
"C  c #DDBE18",
"Z  c #D8BF1C",
"A  c #DABE1F",
"S  c #CCBB27",
"D  c #CAB72A",
"F  c #CFBA2D",
"G  c #D6BB22",
"H  c #D3B928",
"J  c #D1BB29",
"K  c #D1B82A",
"L  c #D4BA29",
"P  c #D4B92A",
"I  c #D4BB2D",
"U  c #D1BC2D",
"Y  c #D9BD2D",
"T  c #D9BE2F",
"R  c #CEB733",
"E  c #CEBB3A",
"W  c #D1B631",
"Q  c #D1B933",
"!  c #D2BB37",
"~  c #D4C000",
"^  c #D2C403",
"/  c #D2C505",
"(  c #D5C405",
")  c #D8C000",
"_  c #D8C101",
"`  c #DAC200",
"'  c #DDC000",
"]  c #DCC200",
"[  c #DEC006",
"{  c #DDC00A",
"}  c #D6C015",
"|  c #DDC117",
" . c #D2C11B",
".. c #D7C01A",
"X. c #E0C009",
"o. c #EFDB22",
"O. c #F4DB29",
"+. c #F3DC2C",
"@. c #F6DC2F",
"#. c #F4DF2E",
"$. c #ECDC3E",
"%. c #F5DA33",
"&. c #F1D835",
"*. c #FBDD31",
"=. c #F8DB37",
"-. c #FADA37",
";. c #F9DE37",
":. c #F9DC38",
">. c #F9E02B",
",. c #FBFD37",
"<. c #FFF73A",
"1. c #FFFB3A",
"2. c #FFFC39",
"3. c #FFFA3C",
"4. c #FFFB3D",
"5. c #FFFD3D",
"6. c #FFFF3C",
"7. c #FFFF3D",
"8. c #FFFD3F",
"9. c #FEFF3F",
"0. c #CBBD40",
"q. c #C9BA47",
"w. c #C5B74E",
"e. c #C9B64F",
"r. c #CAB750",
"t. c #C9B657",
"y. c #CAB856",
"u. c #EDDD42",
"i. c #EFDB46",
"p. c #EADC45",
"a. c #EFDA4B",
"s. c #F0D840",
"d. c #F5DC41",
"f. c #F2DE47",
"g. c #F2D949",
"h. c #F0DA48",
"j. c #ECD553",
"k. c #E9DB5E",
"l. c #F3D951",
"z. c #F1D75C",
"x. c #FFF544",
"c. c #FFF840",
"v. c #FFFE40",
"b. c #FFFF40",
"n. c #FFFA45",
"m. c #FFF946",
"M. c #FFFA46",
"N. c #FFF749",
"B. c #FFF948",
"V. c #FFF84A",
"C. c #FFFA4B",
"Z. c #FFF94C",
"A. c #FDFB50",
"S. c #FFFE51",
"D. c #FEFF55",
"F. c #F6FA5D",
"G. c #E7D565",
"H. c #ECD960",
"J. c #E7D569",
"K. c #E9D76B",
"L. c #EDD76A",
"P. c #E5D870",
"I. c #FFF46B",
"U. c #F6F672",
"Y. c #FBF472",
"T. c #FDF579",
"R. c #F8F687",
/* pixels */
"                                                                ",
"                                                                ",
"                              O %                               ",
"                            P.k.H.K.> :                         ",
"                          Y.p.$.u.i.g.! e.                      ",
"                        U.S.n.n.N.} x G I .                     ",
"                      # F.7.4.3.c.b T P m E                     ",
"                      R.D.,.7.7.0 x 3 4 ..I 1                   ",
"                    $ T.A.7.4.^ ` g Q 9 b K 2                   ",
"                    o I.Z.v.v.^ ` { K 9 z T =                   ",
"                    L.s.N.v.2.~ ' t n :.g K &                   ",
"                  < z.=.#.o.` ` i r d x.| R                     ",
"                  = W x O.>.q w w { ( B.S .                     ",
"                  : l.*.@.h X.i n x 3.C.0.@                     ",
"                  - j.:.&.;.s n P 7 n. .e.                      ",
"                    J.g.d.%.j z 9 a.M F                         ",
"                      G.f.+.i [ p ..F .                         ",
"                        q.D G V Z K r.                          ",
"                          , o t.t.+                             ",
"                                                                ",
"                                                                ",
"                                                                ",
"                                                                ",
"                                                                ",
"                                                                ",
"                                                                ",
"                                                                ",
"                                                                ",
"                                                                ",
"                                                                ",
"                                                                ",
"                                                                "
};
