/* XPM */
static char *coin_51672247740[] = {
/* columns rows colors chars-per-pixel */
"32 32 205 2 ",
"   c None",
".  c #7A6C0E",
"X  c #7C7004",
"o  c #767208",
"O  c #786C10",
"+  c #7C6E16",
"@  c #7C6C1A",
"#  c #7E6C1A",
"$  c #7A6E1C",
"%  c #7E6C1C",
"&  c #7C6C1E",
"*  c #7E7010",
"=  c #76721A",
"-  c #78721A",
";  c #7C6A20",
":  c #786C26",
">  c #787028",
",  c #746830",
"<  c #786C34",
"1  c #786C36",
"2  c #816E00",
"3  c #896E00",
"4  c #896F00",
"5  c #816C08",
"6  c #806E08",
"7  c #806E0A",
"8  c #826B0D",
"9  c #816C0C",
"0  c #8E7400",
"q  c #DAB703",
"w  c #DEB700",
"e  c #D7BE02",
"r  c #D7BA06",
"t  c #DABB00",
"y  c #DCBA00",
"u  c #DDBA00",
"i  c #DDBB02",
"p  c #D8BD00",
"a  c #DBBC00",
"s  c #DBBC01",
"d  c #DBBE02",
"f  c #DBBF03",
"g  c #DFBC00",
"h  c #DDBE01",
"j  c #DCBD02",
"k  c #DCBD03",
"l  c #DEBC02",
"z  c #DFBC02",
"x  c #DEBC03",
"c  c #DFBD03",
"v  c #DDBE03",
"b  c #D9BA07",
"n  c #DDBA06",
"m  c #DCBE04",
"M  c #DEBF05",
"N  c #D3BE09",
"B  c #D1BE0A",
"V  c #D7BB0F",
"C  c #DEB909",
"Z  c #DBBC09",
"A  c #D8BF0A",
"S  c #DFBC0A",
"D  c #DDBE0B",
"F  c #DFBF0A",
"G  c #DBBD0D",
"H  c #DCBC0F",
"J  c #DEBF0F",
"K  c #D4B910",
"L  c #D4BE10",
"P  c #D5BE10",
"I  c #DEBB15",
"U  c #DBBC16",
"Y  c #DCBD15",
"T  c #D7BE19",
"R  c #D6B91F",
"E  c #D9B919",
"W  c #DABA1A",
"Q  c #D9BC18",
"!  c #DDBE18",
"~  c #E1BB00",
"^  c #E2BB00",
"/  c #E1BB02",
"(  c #E2BC01",
")  c #E0BE00",
"_  c #E2BC03",
"`  c #E0BF02",
"'  c #E2BB04",
"]  c #E2BB06",
"[  c #E0BE04",
"{  c #E1BE04",
"}  c #E2BF05",
"|  c #E4BC05",
" . c #E5BF06",
".. c #E2BE0E",
"X. c #E2BE12",
"o. c #D4B920",
"O. c #D5BA21",
"+. c #D7BC25",
"@. c #D4B72D",
"#. c #D2B928",
"$. c #D5B92A",
"%. c #D6BE2A",
"&. c #D2B82D",
"*. c #D5B82C",
"=. c #D9B92A",
"-. c #C8BD30",
";. c #D0B736",
":. c #D4B830",
">. c #D4BA31",
",. c #D3BC30",
"<. c #D7BC39",
"1. c #D1B93D",
"2. c #D7C000",
"3. c #D4C301",
"4. c #D7C300",
"5. c #D7C002",
"6. c #D6C402",
"7. c #D5C307",
"8. c #D4C605",
"9. c #D9C001",
"0. c #DDC002",
"q. c #DAC104",
"w. c #DFC005",
"e. c #DEC105",
"r. c #DCC007",
"t. c #DEC006",
"y. c #DEC10B",
"u. c #D8C60A",
"i. c #D0C012",
"p. c #D0C013",
"a. c #DBC011",
"s. c #D1C31A",
"d. c #D9C119",
"f. c #E1C003",
"g. c #E7C003",
"h. c #E2C006",
"j. c #E3C006",
"k. c #E2C007",
"l. c #E0C10F",
"z. c #E0C013",
"x. c #D8C02A",
"c. c #C9C037",
"v. c #EFDA2F",
"b. c #F3DC2C",
"n. c #F5DE2E",
"m. c #F8DA2C",
"M. c #F8DE33",
"N. c #F3DB3B",
"B. c #F6DC3D",
"V. c #F4DE3D",
"C. c #F6E130",
"Z. c #F6E032",
"A. c #FFF835",
"S. c #FFF53A",
"D. c #FFFD3A",
"F. c #FFFE3B",
"G. c #FFF83D",
"H. c #FFFB3D",
"J. c #FFFA3F",
"K. c #FFFF3E",
"L. c #FFFF3F",
"P. c #CFB544",
"I. c #C6BB45",
"U. c #C8B74B",
"Y. c #CBBA48",
"T. c #CCBA4E",
"R. c #D4BA41",
"E. c #CBB851",
"W. c #CEB852",
"Q. c #EBD744",
"!. c #EED544",
"~. c #EBDA42",
"^. c #EED74D",
"/. c #F0DB42",
"(. c #F3DA42",
"). c #EBD953",
"_. c #ECDA52",
"`. c #EDDB55",
"'. c #EEDA57",
"]. c #EBD65F",
"[. c #F0D852",
"{. c #F2E042",
"}. c #FFFA40",
"|. c #FFF942",
" X c #FFFE40",
".X c #FFFE41",
"XX c #FFFC42",
"oX c #FFFF42",
"OX c #FFFA44",
"+X c #FFFB44",
"@X c #FFFA46",
"#X c #FFFC46",
"$X c #FFFD46",
"%X c #FFFB4B",
"&X c #FFF85E",
"*X c #E7D662",
"=X c #ECD764",
"-X c #EBDC67",
";X c #E5D573",
":X c #E9D775",
">X c #EAD872",
",X c #EAD874",
"<X c #FFF76D",
"1X c #FDF974",
"2X c #FFF479",
/* pixels */
"                            $ 5 9 ;                             ",
"                          > >X].=X,X:                           ",
"                      O -X'.!.(.~.!._.*X.                       ",
"                    ;X).{.v.Z.b.C.n.M.V.^.W.                    ",
"                  ,X_.V.p.|.J.XXS.y.q S m.x.T.                  ",
"                + '.N.N #XK.D.A.4.w. ./ ` V ,.O                 ",
"                X ~.p.XXK.K.D.6.p w._ v w.G O.2                 ",
"                2Xs.XXJ.K.D.8.9.0.v v _ v Z U 1.                ",
"              1 <X@X#X|.XX7.p v p M p w.v v k.:.1               ",
"              , -.|.XXXXu.e j._ _ w.v v v M C :.,               ",
"                1X%XJ.6.4.p ' ' _ p ` / / ' I R.                ",
"                o &XN q.A a.X.C M f./  .w ..=.9                 ",
"                  Y.Q J 4 &.R ! l.M / / v Y P.                  ",
"                  & @.W @.4 0 V b _ ` / G #.@                   ",
"                    W.$.W Y b y.w.t ` H x.Y.                    ",
"                      5 <.R d.B P Q +.;.7                       ",
"                          & I.c.-.I.;                           ",
"                              - -                               ",
"                                                                ",
"                                                                ",
"                                                                ",
"                                                                ",
"                                                                ",
"                                                                ",
"                                                                ",
"                                                                ",
"                                                                ",
"                                                                ",
"                                                                ",
"                                                                ",
"                                                                ",
"                                                                "
};
