/* XPM */
static char *coin_81672247741[] = {
/* columns rows colors chars-per-pixel */
"32 32 116 2 ",
"   c None",
".  c #756F0D",
"X  c #726C14",
"o  c #746D15",
"O  c #7E6F12",
"+  c #786C16",
"@  c #776D18",
"#  c #766E18",
"$  c #7A6A1A",
"%  c #786E18",
"&  c #7C6E18",
"*  c #727014",
"=  c #747616",
"-  c #7A7012",
";  c #747218",
":  c #74721A",
">  c #74701E",
",  c #76701E",
"<  c #787018",
"1  c #7A701E",
"2  c #766E26",
"3  c #7A6C24",
"4  c #786A28",
"5  c #747022",
"6  c #766830",
"7  c #746A30",
"8  c #766832",
"9  c #706834",
"0  c #706A3A",
"q  c #74683C",
"w  c #7A7034",
"e  c #726A46",
"r  c #726C46",
"t  c #DBBF06",
"y  c #D0B915",
"u  c #D9BA14",
"i  c #DBBB1B",
"p  c #CFBF21",
"a  c #D2BF25",
"s  c #D8BE21",
"d  c #CBBE31",
"f  c #CFBB36",
"g  c #CEBA37",
"h  c #CBBF39",
"j  c #CDBC38",
"k  c #DCC20D",
"l  c #CAC219",
"z  c #CEC319",
"x  c #D7C018",
"c  c #D0C120",
"v  c #FCD927",
"b  c #F2DD2A",
"n  c #FADA2D",
"m  c #FCD82C",
"M  c #EDDD30",
"N  c #EDDD3F",
"B  c #FAD932",
"V  c #FADC30",
"C  c #F5D938",
"Z  c #F5DB3E",
"A  c #F3E335",
"S  c #FFFB38",
"D  c #FFF83B",
"F  c #FFFB3B",
"G  c #FFFD39",
"H  c #FFFE3A",
"J  c #FFFE3B",
"K  c #FFFF3B",
"L  c #FFFB3C",
"P  c #FFFA3D",
"I  c #FFFA3E",
"U  c #FFFC3C",
"Y  c #FFFF3C",
"T  c #FFFE3D",
"R  c #B7AD4B",
"E  c #B8A94C",
"W  c #C7BB45",
"Q  c #C7BD44",
"!  c #CAB947",
"~  c #EBDB48",
"^  c #F4D846",
"/  c #E8D755",
"(  c #E8DD50",
")  c #E8DA57",
"_  c #ECD85B",
"`  c #EBDC5B",
"'  c #F3DC52",
"]  c #FFFB41",
"[  c #FAFB48",
"{  c #FCFB4B",
"}  c #FFFB4A",
"|  c #FFFB4E",
" . c #FFFF4C",
".. c #FFFF4F",
"X. c #FFF657",
"o. c #FFFA51",
"O. c #FFFA55",
"+. c #FFF959",
"@. c #FFFA5A",
"#. c #FFFD59",
"$. c #EAD465",
"%. c #E1D36A",
"&. c #E7D66A",
"*. c #E5D774",
"=. c #E9D670",
"-. c #E4D779",
";. c #F8F26A",
":. c #FFF66F",
">. c #F9F868",
",. c #F9F86A",
"<. c #FDF570",
"1. c #FBF970",
"2. c #FCF873",
"3. c #FCF974",
"4. c #F6F47B",
"5. c #FDF87A",
/* pixels */
"                                                                ",
"                                                                ",
"                                                                ",
"                              6 6                               ",
"                            *.` / &.                            ",
"                          2 ( M A ~ E                           ",
"                          4.o.] I X.R 9                         ",
"                        = ,.{ K K #.. 0                         ",
"                        * ,...G K @.o r                         ",
"                        , ,.[ K K @.# e                         ",
"                        , 3...K D p O q                         ",
"                        , 2.{ D I x %.w                         ",
"                        # <.| T I l 5.5                         ",
"                        < h o.D I l ;.;                         ",
"                        X j y k t x :.;                         ",
"                        1 _ Z n v u f &                         ",
"                        3 $.^ n m i g +                         ",
"                        4 =.' C V s !                           ",
"                          -.) ~ b c $                           ",
"                            - Q d !                             ",
"                                8                               ",
"                                                                ",
"                                                                ",
"                                                                ",
"                                                                ",
"                                                                ",
"                                                                ",
"                                                                ",
"                                                                ",
"                                                                ",
"                                                                ",
"                                                                "
};
