/* XPM */
static char *coin_31672247740[] = {
/* columns rows colors chars-per-pixel */
"32 32 180 2 ",
"   c None",
".  c #786E00",
"X  c #7E7400",
"o  c #7F7C00",
"O  c #74760A",
"+  c #7C6E14",
"@  c #726E18",
"#  c #786A18",
"$  c #7A6E1A",
"%  c #7C6C1E",
"&  c #7C7210",
"*  c #7A7016",
"=  c #7C701E",
"-  c #746C22",
";  c #7A6820",
":  c #7E6E20",
">  c #746E28",
",  c #7A7020",
"<  c #7C7020",
"1  c #726C30",
"2  c #806E08",
"3  c #906E00",
"4  c #877000",
"5  c #837700",
"6  c #8A7000",
"7  c #897200",
"8  c #8C7000",
"9  c #8D7100",
"0  c #D7BF00",
"q  c #D5BD03",
"w  c #DDBB00",
"e  c #D9BE00",
"r  c #DCBD02",
"t  c #DEBC02",
"y  c #DDBE03",
"u  c #DCBF03",
"i  c #DEBF02",
"p  c #D9BB05",
"a  c #DDBB04",
"s  c #DBBD05",
"d  c #DDBE04",
"f  c #DDBF05",
"g  c #DEBF04",
"h  c #DDBD06",
"j  c #DBBB08",
"k  c #DDBC0B",
"l  c #DFBB0F",
"z  c #DFBF0C",
"x  c #D2BD14",
"c  c #D9BA11",
"v  c #D8BC10",
"b  c #D8BB15",
"n  c #D8BB17",
"m  c #DBBA17",
"M  c #DEBB17",
"N  c #D9BD14",
"B  c #D5B918",
"V  c #D6B81C",
"C  c #D6BC1D",
"Z  c #D8BF1D",
"A  c #E1BB00",
"S  c #E2BC01",
"D  c #E0BE00",
"F  c #E2BF05",
"G  c #E0BC06",
"H  c #E2BD0D",
"J  c #CFB92F",
"K  c #C9BE2E",
"L  c #D7BA21",
"P  c #D5BC22",
"I  c #D5BB26",
"U  c #D5BD25",
"Y  c #DCBE22",
"T  c #D8BA24",
"R  c #D4BC28",
"E  c #C9B53C",
"W  c #C7BF38",
"Q  c #CDBB3F",
"!  c #CFBE3C",
"~  c #D2B830",
"^  c #D2B83D",
"/  c #D3B93E",
"(  c #D1BE3E",
")  c #CFC300",
"_  c #D6C300",
"`  c #D2C401",
"'  c #D4C400",
"]  c #D7C604",
"[  c #D8C000",
"{  c #D9C001",
"}  c #DCC000",
"|  c #DFC100",
" . c #DCC200",
".. c #DCC004",
"X. c #DDC004",
"o. c #D6C20B",
"O. c #DBC108",
"+. c #DAC10D",
"@. c #D0C015",
"#. c #DCC213",
"$. c #D4C11C",
"%. c #E0C000",
"&. c #E3C000",
"*. c #E4C000",
"=. c #E0C106",
"-. c #E1C21A",
";. c #FFE503",
":. c #FFE603",
">. c #FFEC04",
",. c #FEE40B",
"<. c #FDE70A",
"1. c #FFE00C",
"2. c #FEE50C",
"3. c #FFE60C",
"4. c #FFE70E",
"5. c #FDE416",
"6. c #FFEB12",
"7. c #FDE815",
"8. c #FFE915",
"9. c #F5E41A",
"0. c #F8E318",
"q. c #FFE518",
"w. c #F9E61E",
"e. c #F5E530",
"r. c #F4E335",
"t. c #F4E439",
"y. c #F7E53B",
"u. c #FFFB37",
"i. c #FFF638",
"p. c #FFFB3A",
"a. c #FFFC39",
"s. c #FFFF39",
"d. c #FFFD3A",
"f. c #FFFE3B",
"g. c #FFFF3B",
"h. c #FFFA3C",
"j. c #FFFF3C",
"k. c #FFFE3D",
"l. c #CBB840",
"z. c #CFB941",
"x. c #CEB944",
"c. c #CDBA44",
"v. c #CCBC4B",
"b. c #CEBD4B",
"n. c #CFBA4D",
"m. c #C9BC4C",
"M. c #D1B748",
"N. c #CBB65B",
"B. c #EEE34D",
"V. c #EEE24E",
"C. c #F3E642",
"Z. c #F5E643",
"A. c #FFFB41",
"S. c #FFFC41",
"D. c #FFFD42",
"F. c #FFF946",
"G. c #FFFE45",
"H. c #FFF948",
"J. c #FFFC4A",
"K. c #FFF84E",
"L. c #FFF94E",
"P. c #EBE257",
"I. c #F0E154",
"U. c #FEFA50",
"Y. c #FEF953",
"T. c #FFFE52",
"R. c #FDFA57",
"E. c #FBFD54",
"W. c #FFF75B",
"Q. c #FEFA59",
"!. c #FEF95D",
"~. c #FFFA5E",
"^. c #F1E263",
"/. c #FDF866",
"(. c #FFFD6C",
"). c #F6F672",
"_. c #FFF573",
"`. c #FCF279",
"'. c #FAF07D",
"]. c #FCF58D",
/* pixels */
"                                                                ",
"                              >                                 ",
"                          . Z.t.V.X                             ",
"                      $ ^.y.7.<.w.r.I.                          ",
"                    x.C v y } 4.4.5.0.C.                        ",
"                  , U X.f F w D <.:.>.9.P.                      ",
"                  m.R n 3 M H A *.1.:.6.e.X                     ",
"                + z.J 8 Y b l G A *.4.<.w.V.                    ",
"                + l.( 4 b z f f y D q.5.` !.@                   ",
"                : n.E 7 b s s f f }  ._ d.R.].                  ",
"                  N./ 8 V -.k y %.{ ) d.d.T.`.-                 ",
"                  % / L 8 N j X._ _ d.j.d.F._.=                 ",
"                    z.B #.q f e ] p.p.j.d.F.! #                 ",
"                    2 I +.{ O.o.A.S.A.h.d.@.b.                  ",
"                      x.c f x 5 o Y.G.i.X.P <                   ",
"                        ~ Z W.!.Q.Y.K.$.T M.                    ",
"                          '.(.E.J.K.K b.%                       ",
"                            O )./.W &                           ",
"                                1                               ",
"                                                                ",
"                                                                ",
"                                                                ",
"                                                                ",
"                                                                ",
"                                                                ",
"                                                                ",
"                                                                ",
"                                                                ",
"                                                                ",
"                                                                ",
"                                                                ",
"                                                                "
};
