/* XPM */
static char *coin_11672247740[] = {
/* columns rows colors chars-per-pixel */
"32 32 57 1 ",
"  c None",
". c #6E6C26",
"X c #706E2A",
"o c #746A2C",
"O c #726C2E",
"+ c #74702C",
"@ c #74702E",
"# c #78702E",
"$ c #746C32",
"% c #786832",
"& c #786C32",
"* c #7A6A34",
"= c #7A6A36",
"- c #7A6C34",
"; c #7A6A38",
": c #786C38",
"> c #747030",
", c #DBBE0A",
"< c #DBBE0B",
"1 c #CCBE2A",
"2 c #CBBE34",
"3 c #CBBD36",
"4 c #D2BB31",
"5 c #D3C203",
"6 c #D3C105",
"7 c #EFDE30",
"8 c #F8D732",
"9 c #FCDA30",
"0 c #F9DC38",
"q c #ECE235",
"w c #FFFE39",
"e c #FFFD3B",
"r c #FEFE3A",
"t c #FFFE3A",
"y c #FEFF3A",
"u c #FEFF3B",
"i c #FEFE3C",
"p c #FFFF3C",
"a c #FFFF3D",
"s c #FFFF3F",
"d c #C6BB52",
"f c #E9D252",
"g c #E1D952",
"h c #EEDE57",
"j c #E7D95C",
"k c #E5DA5C",
"l c #F1D651",
"z c #F6DB5A",
"x c #FFFC42",
"c c #FCF55E",
"v c #E1D775",
"b c #F8F960",
"n c #F9FA60",
"m c #FCFB63",
"M c #FFFA62",
"N c #FFFC61",
"B c #FFF867",
/* pixels */
"                                ",
"                                ",
"                                ",
"               :;               ",
"              vkjv              ",
"             $gqqg>             ",
"             XBxxB$             ",
"             >MwpM$             ",
"             Xmppm+             ",
"             +nppb+             ",
"             +nwib+             ",
"             .NwwN.             ",
"             #cppc+             ",
"             o1561o             ",
"             &4,<4-             ",
"             %l99l%             ",
"             %z88z%             ",
"             &f00f-             ",
"             $h77h$             ",
"              d33d              ",
"               ==               ",
"                                ",
"                                ",
"                                ",
"                                ",
"                                ",
"                                ",
"                                ",
"                                ",
"                                ",
"                                ",
"                                "
};
