/* XPM */
static char *result[] = {
/* columns rows colors chars-per-pixel */
"48 48 5 1 ",
"  c #181425",
". c #404973",
"X c #686F99",
"o c #A3A7C2",
"O c None",
/* pixels */
"OOOOOOOOOOOO                        OOOOOOOOOOOO",
"OOOOOOOOOOOO                        OOOOOOOOOOOO",
"OOOOOOOOOOOO                        OOOOOOOOOOOO",
"OOOOOOOOO   XXXooooooooooooooooooXXX   OOOOOOOOO",
"OOOOOOOOO   XXXooooooooooooooooooXXX   OOOOOOOOO",
"OOOOOOOOO   XXXooooooooooooooooooXXX   OOOOOOOOO",
"OOOOOO   XXXooooooooooooooooooooooooXXX   OOOOOO",
"OOOOOO   XXXooooooooooooooooooooooooXXX   OOOOOO",
"OOOOOO   XXXooooooooooooooooooooooooXXX   OOOOOO",
"OOO   XXXooooooooooooooooooooooooooooooXXX   OOO",
"OOO   XXXooooooooooooooooooooooooooooooXXX   OOO",
"OOO   XXXooooooooooooooooooooooooooooooXXX   OOO",
"   XXXooooooooooooooooooooooooooooooooooooXXX   ",
"   XXXooooooooooooooooooooooooooooooooooooXXX   ",
"   XXXooooooooooooooooooooooooooooooooooooXXX   ",
"   XXXooooooooooooooooooooooooooooooooooooXXX   ",
"   XXXooooooooooooooooooooooooooooooooooooXXX   ",
"   XXXooooooooooooooooooooooooooooooooooooXXX   ",
"   XXXooooooooooooooooooooooooooooooooooooXXX   ",
"   XXXooooooooooooooooooooooooooooooooooooXXX   ",
"   XXXooooooooooooooooooooooooooooooooooooXXX   ",
"   ...XXXooooooooooooooooooooooooooooooXXX...   ",
"   ...XXXooooooooooooooooooooooooooooooXXX...   ",
"   ...XXXooooooooooooooooooooooooooooooXXX...   ",
"   ......XXXooooooooooooooooooooooooXXX......   ",
"   ......XXXooooooooooooooooooooooooXXX......   ",
"   ......XXXooooooooooooooooooooooooXXX......   ",
"   .........XXXooooooooooooooooooXXX.........   ",
"   .........XXXooooooooooooooooooXXX.........   ",
"   .........XXXooooooooooooooooooXXX.........   ",
"   ............XXXXXXXXXXXXXXXXXX............   ",
"   ............XXXXXXXXXXXXXXXXXX............   ",
"   ............XXXXXXXXXXXXXXXXXX............   ",
"   ............XXXXXXXXXXXXXXXXXX............   ",
"   ............XXXXXXXXXXXXXXXXXX............   ",
"   ............XXXXXXXXXXXXXXXXXX............   ",
"OOO   .........XXXXXXXXXXXXXXXXXX.........   OOO",
"OOO   .........XXXXXXXXXXXXXXXXXX.........   OOO",
"OOO   .........XXXXXXXXXXXXXXXXXX.........   OOO",
"OOOOOO   ......XXXXXXXXXXXXXXXXXX......   OOOOOO",
"OOOOOO   ......XXXXXXXXXXXXXXXXXX......   OOOOOO",
"OOOOOO   ......XXXXXXXXXXXXXXXXXX......   OOOOOO",
"OOOOOOOOO   ...XXXXXXXXXXXXXXXXXX...   OOOOOOOOO",
"OOOOOOOOO   ...XXXXXXXXXXXXXXXXXX...   OOOOOOOOO",
"OOOOOOOOO   ...XXXXXXXXXXXXXXXXXX...   OOOOOOOOO",
"OOOOOOOOOOOO                        OOOOOOOOOOOO",
"OOOOOOOOOOOO                        OOOOOOOOOOOO",
"OOOOOOOOOOOO                        OOOOOOOOOOOO"
};
