/* XPM */
static char *wall1671476513[] = {
/* columns rows colors chars-per-pixel */
"48 48 223 2 ",
"   c None",
".  c #021C0D",
"X  c #001E12",
"o  c #0D1D16",
"O  c #042616",
"+  c #002A15",
"@  c #022B1A",
"#  c #0A2A1C",
"$  c #09241C",
"%  c #11221B",
"&  c #01331C",
"*  c #003C1E",
"=  c #0D3B1E",
"-  c #092C20",
";  c #033621",
":  c #0C3323",
">  c #033B23",
",  c #0C3C26",
"<  c #0C3D29",
"1  c #053F29",
"2  c #123423",
"3  c #123B26",
"4  c #1A3329",
"5  c #123C2B",
"6  c #1B3B2C",
"7  c #13362B",
"8  c #183229",
"9  c #293B35",
"0  c #233B30",
"q  c #00401D",
"w  c #064424",
"e  c #0A4324",
"r  c #054329",
"t  c #0B452A",
"y  c #0C4C2D",
"u  c #134227",
"i  c #13442C",
"p  c #144B2E",
"a  c #1B492E",
"s  c #18432F",
"d  c #0F502E",
"f  c #164532",
"g  c #1C4431",
"h  c #144C33",
"j  c #1B4C33",
"k  c #1B4E39",
"l  c #155433",
"z  c #1B5236",
"x  c #1C553B",
"c  c #124D30",
"v  c #244C34",
"b  c #264738",
"n  c #33433C",
"m  c #24533B",
"M  c #2A553D",
"N  c #295A3E",
"B  c #33593F",
"V  c #1F5743",
"C  c #384741",
"Z  c #2D5643",
"A  c #2A5C43",
"S  c #265441",
"D  c #3B5245",
"F  c #315A44",
"G  c #3B5C4B",
"H  c #335744",
"J  c #234F40",
"K  c #2B6248",
"L  c #2A6746",
"P  c #346249",
"I  c #3A624A",
"U  c #3A654B",
"Y  c #3D6751",
"T  c #377254",
"R  c #414F4A",
"E  c #43544D",
"W  c #415C4B",
"Q  c #4B5D53",
"!  c #465752",
"~  c #436351",
"^  c #436C54",
"/  c #4A6C5C",
"(  c #476959",
")  c #447459",
"_  c #4B745C",
"`  c #48775B",
"'  c #4B6153",
"]  c #586B62",
"[  c #4D7862",
"{  c #527663",
"}  c #5A7366",
"|  c #517D65",
" . c #5B776B",
".. c #597D6D",
"X. c #63726B",
"o. c #637C6E",
"O. c #657B71",
"+. c #6C7971",
"@. c #727773",
"#. c #686868",
"$. c #488366",
"%. c #53846B",
"&. c #5C866D",
"*. c #548B6E",
"=. c #558367",
"-. c #598A72",
";. c #5C9374",
":. c #628C71",
">. c #6D8379",
",. c #6C8A7C",
"<. c #678675",
"1. c #73827B",
"2. c #738A7E",
"3. c #78857E",
"4. c #69967D",
"5. c #72937E",
"6. c #788C83",
"7. c #699B84",
"8. c #739483",
"9. c #739C85",
"0. c #7A9885",
"q. c #68A285",
"w. c #78A28C",
"e. c #7CAC91",
"r. c #79A490",
"t. c #78B191",
"y. c #85978D",
"u. c #899B93",
"i. c #979B97",
"p. c #84A48E",
"a. c #84AC94",
"s. c #8AAD9A",
"d. c #87A495",
"f. c #93A399",
"g. c #99A89D",
"h. c #89B59B",
"j. c #9CACA4",
"k. c #92ACA1",
"l. c #8DBEA3",
"z. c #8EB3A1",
"x. c #94B4A2",
"c. c #9BB2A5",
"v. c #9BBCA9",
"b. c #99B7A7",
"n. c #A6ACA7",
"m. c #A2B3AC",
"M. c #A2BBAB",
"N. c #ADBCB4",
"B. c #B6BAB8",
"V. c #B4B0AF",
"C. c #8BC1A4",
"Z. c #93C2A6",
"A. c #96C3AC",
"S. c #9AC4AC",
"D. c #9CCCB3",
"F. c #A3C3B1",
"G. c #ADC5BA",
"H. c #A9CAB6",
"J. c #B5C4BD",
"K. c #B4CBBD",
"L. c #B9C3BA",
"P. c #ACD3BC",
"I. c #B3D2BE",
"U. c #A4C7AF",
"Y. c #BDCBC2",
"T. c #BFCEC9",
"R. c #B4D3C3",
"E. c #BCD4C5",
"W. c #BCDDCA",
"Q. c #B9D6C7",
"!. c #BBE4CD",
"~. c #C4C5C4",
"^. c #C4CBC5",
"/. c #C4CDC8",
"(. c #CCCCCC",
"). c #CAC8C6",
"_. c #D1CDCE",
"`. c #D9CACF",
"'. c #C4D4CB",
"]. c #CCD3CE",
"[. c #C8D8CC",
"{. c #D2D1CE",
"}. c #D1CFD1",
"|. c #DBCFD2",
" X c #CCDBD4",
".X c #C9D9D3",
"XX c #D4D4D4",
"oX c #D9D5D6",
"OX c #D3DAD6",
"+X c #D9D9D7",
"@X c #D4DCD9",
"#X c #DCDCDB",
"$X c #DAD7D9",
"%X c #E0DDDD",
"&X c #C8EAD6",
"*X c #D4E3DC",
"=X c #DCE2DE",
"-X c #D4E8DA",
";X c #C0E3CF",
":X c #E1E1DF",
">X c #E1DFE0",
",X c #DEE4E1",
"<X c #DDEAE3",
"1X c #D7E8E3",
"2X c #E4E4E3",
"3X c #E9E4E5",
"4X c #E3EBE5",
"5X c #E8E9E6",
"6X c #E9E7E9",
"7X c #E5ECE9",
"8X c #ECECEC",
"9X c #F3EFEF",
"0X c #E5F2EB",
"qX c #EDF1EE",
"wX c #F1F0EE",
"eX c #EFEFF1",
"rX c #F3EFF0",
"tX c #EEF2F0",
"yX c #F3F3F3",
"uX c #F4F9F5",
"iX c #F9F7F8",
"pX c gray98",
"aX c #F7F8F7",
/* pixels */
"                                                                                                ",
"                                                                                                ",
"                                                                                                ",
"                                                                                                ",
"                                                                                                ",
"                                      C o 9 C R o                                               ",
"                            - ! ! ! +.j.] Y.1.N.f.N.    c.C % Q                                 ",
"                          C T.] m.6.,X1X(.'./.N..Xu.m.<XY.@.u.i.b 4                             ",
"                      ] % ! m.1X'.+X2X#X/.7XOX2XXX4X2X].]./.+Xi.T.6.Q                           ",
"                    4 '.m.D B.eXaX2XwX2X5X:X8X8XyXyX:X6X2XaX(.2X-XL.6.0                         ",
"                  9 N..X.X XOX X3X_.#XyXyXyXrXyXyX6X3XyX8XoX3X8XqX/.j.>.}                       ",
"                  ! .X1X X@XyXyX8X(.8X3XpX8XuXyXyXyXyXyXyX2XiX4X#X+X0X Xk. .                    ",
"                ! X.G.@X X7XyXeXyX4XyXyX8XaXtXyXyXuXyXyXyXyXyXyXwX+X:X0XT.D ]                   ",
"              % X.T.tX,X7XeX).eXwXuXtXyXyXtXqXyXeXtXyXuXqX8XuXuXwX+X=X0X@X.Xj.]                 ",
"              C u.J.XXeXeX6XeXrXyXyX8XyXyX8XyXiXyXyXrXrXyXpX8XrXuXuXyX#X6X^.J.<.b               ",
"              O.1X@X,X6XXXoXiXrXyXrXyXyXrXiXyXrXyX8XyXyXyX8XyXyXtXqXwX3X#XaX XJ.6               ",
"            6 N.<XOX(.qX6XyXyXrXyXyXyXyXrXuXyX8XyXyXyXyXyXeX8XyXeXeX}.eXiX}.|.V.O.              ",
"          O o.K.].^.@X8X].8XiXrX8XyXyXyXyXyXyXyXyXiXtXrXyXyXyXyXeXiX$X>X*XtX>Xn.6.$             ",
"        @ -.,.y.XX2X~._.8X2X8XiXyXyXyXyXyXyXqXyXrXyXyXtXyXyXyXrXeXiXyXrX,X8X,X+.0.O.            ",
"        v m { /.XX'.$X6XuX(.6XyXyXyXyX8XyXyXyXyXuX8XyXrXyXyXeXuX6X6XyX}.$X@X,XT.c.G.            ",
"      o { ,.0..X/.:X+X).8XyXrXrXyXyXyXyXyXyXyXyXyXyXyXrXyX8XyXyXyXeX2X#X{.=XtX*X8.I             ",
"      9 s.~ { Y.].5X%X].,XyX%XyX8XyXyXiX8XyXyXyXyXyXtXpXrXXX6X6X#XiX(.XX_.XXY.R...Z (           ",
"      <.I.F.1.N.qXwX8XOX#XiX2X2X#X6X,XyXyXyXyXyXyXyXyXyX8XXX#X#X8X2X(.wX5X0Xp.m / 8.R.n         ",
"      8.{ I f.[.f.2X8X#X2X}.8XrXXXoX).eX8XyXyX6XyX8XyX2XyXyX6X/.#X}.+X+X{./.H Z.r.z.] D         ",
"    X { ) F W.+.i.iX:X9X:X%X8XuX6XeX8X6XyXrXeXXX2XpXoXXXtX,X#X}.+X6X=X].5X^.g.P.7.A Z Y         ",
"    2 9.F Z 0.Q.OXoX%XoX_.#XaX7XoXyXtX).2X}.pXeXpX8XtX#XpX8X6X8X=X2X=XuX].n.<.` h A D.,.G       ",
"    : > r.9.G G.Y.6X2X$XoXoX].8X8XyX8XrX6X2X,X2X8X2X6XpX2X6XoX6X8X+X=X].<X[.4.u P e.;XQ.l.6     ",
"    g S [ !.9.K.'./.,X6X8X5X2XyX(.#X,XyX8XaX(.XXXX$XoX2X6X#X/.oX+X3Xn.K.' E.N =.| I s.v.9.Z     ",
"  b j k ( s.v d.c././.@XeXXX%X>X,XXXoX6X$X%X2X8X2XXX(.(.XX8X).XX%X2X1.X.^.U.^ ) l.^ [ j %.5     ",
"    ; < ^ 9.I p.D T.6.@.2X(.}.XX2XoXXX2X$XXX}.7X8X%X).(.OX~.,X$X{.XXo.2.g.L._ !.I A *.h > :     ",
"    + c m S | !..X@Xg.n.).8X7X(.+X(.8XtX7X6X2X7X(.$X%X#X8X#X2X%X3XyX>.M.[.<X:.` ^ 9.A t x t     ",
"    h x l.7.A H.0.N.~.V.].XX].7X8X#XXX(.}.(.>XeX%X8XyXyX(.}.B.#.).^.-Xp.g.' ` u p.H.N * t J     ",
". # & s %.e N T T T 4.;.Z.I.K.0X`.|.:X+X:X=X/.2X:X:XXX4XqX<X Xi.E.-Xb.x.B W.A 7.%.7.Z 5 -       ",
"X . s j * p ` C.d L l u L ~ W x.).+X{.0X-X=X=X5X(.B.-X*Xu.0X~.2XM.p.W G x.s.a.N 7.: ; 7         ",
"    @ l V t e.h.` R.Z.U 0.2 I B +.[.} =.s.b.0X:X#.6.x./ o.g.:Xi.0.M 8.H.M.B { 3 ; 1 < :         ",
"    J r & h e 3 :.U.h.p.U.:.u l.x.[.&.U ^ ,. XK.c.v.f m s.c.L.).m a &.<.W.I.;X) f 1 : 2         ",
"    : V > 1 t h ) N &.B a.:.4.t.I.S.&X$.N P.I.M.R.F.4.z N _ [.@.P q.Y A h.) =.m s : 2           ",
"      5 J 1 r ; d N a C.= :.4.q ^ =.a.p *.S.v v s._ v 4.l.3 M.*Xh.S.*.D.T K , 5 M $             ",
"        ; < @ & q e q *.$.;.d d q l l l L L T A a | S.P.x.&XG.2.H.S K q.$.r t h :               ",
"          X $ @ c e q q T L y l d d d q l l t.z C.a | U g G s._ a , & l & r ; k O               ",
"              0 j e h & h t > r l q e * * y w l $.r r 1 ; ; K T 5 6 5 < ; 1 f @                 ",
"                O . 7 S 5 5 @ : j z m z p * h h y > h r k > 1 > b # - : b @ 4                   ",
"                      %       $ s f & < @ + j , 5 f < - f f -                                   ",
"                                            4     4 : 7 ;                                       ",
"                                                    X                                           ",
"                                                                                                ",
"                                                                                                ",
"                                                                                                "
};
