/* XPM */
static char *d7fbcbbaccce4295fbb2203a614fb63eGtri6ZWK6x8lk0fm[] = {
/* columns rows colors chars-per-pixel */
"48 48 7 1 ",
"  c None",
". c #14182E",
"X c #E64539",
"o c #AD2F45",
"O c #F0B541",
"+ c #FFEE83",
"@ c #F5FFE8",
/* pixels */
"                                                ",
"                                                ",
"                                                ",
"                                                ",
"                                                ",
"                                                ",
"                                                ",
"                                                ",
"                                                ",
"      ......                        ......      ",
"      ......                        ......      ",
"      ......                        ......      ",
"   ...+++..............................+++...   ",
"   ...+++..............................+++...   ",
"   ...+++..............................+++...   ",
"   ...+++...oooooooooooooooooooooooo...+++...   ",
"   ...+++...oooooooooooooooooooooooo...+++...   ",
"   ...+++...oooooooooooooooooooooooo...+++...   ",
"   ...@@@...XXXXXXXXXXXXXXXXXXXXXXXX...@@@...   ",
"   ...@@@...XXXXXXXXXXXXXXXXXXXXXXXX...@@@...   ",
"   ...@@@...XXXXXXXXXXXXXXXXXXXXXXXX...@@@...   ",
"   ...+++...oooooooooooooooooooooooo...+++...   ",
"   ...+++...oooooooooooooooooooooooo...+++...   ",
"   ...+++...oooooooooooooooooooooooo...+++...   ",
"   ...+++...oooooo............oooooo...+++...   ",
"   ...+++...oooooo............oooooo...+++...   ",
"   ...+++...oooooo............oooooo...+++...   ",
"   ...+++.........@@@@@@@@@@@@.........+++...   ",
"   ...+++.........@@@@@@@@@@@@.........+++...   ",
"   ...+++.........@@@@@@@@@@@@.........+++...   ",
"   ...+++++++++OOO+++......+++OOO+++++++++...   ",
"   ...+++++++++OOO+++......+++OOO+++++++++...   ",
"   ...+++++++++OOO+++......+++OOO+++++++++...   ",
"   ...............+++......+++...............   ",
"   ...............+++......+++...............   ",
"   ...............+++......+++...............   ",
"   ...OOO...oooooo...++++++...oooooo...OOO...   ",
"   ...OOO...oooooo...++++++...oooooo...OOO...   ",
"   ...OOO...oooooo...++++++...oooooo...OOO...   ",
"   ...+++..............................+++...   ",
"   ...+++..............................+++...   ",
"   ...+++..............................+++...   ",
"   ...++++++++++++++++++++++++++++++++++++...   ",
"   ...++++++++++++++++++++++++++++++++++++...   ",
"   ...++++++++++++++++++++++++++++++++++++...   ",
"   ...OOO..............................OOO...   ",
"   ...OOO..............................OOO...   ",
"   ...OOO..............................OOO...   "
};
