/* XPM */
static char *exit_c1672247209[] = {
/* columns rows colors chars-per-pixel */
"48 48 212 2 ",
"   c None",
".  c #4C4F3A",
"X  c #4E513E",
"o  c #54513C",
"O  c #5A513D",
"+  c #764A2C",
"@  c #7A4C2E",
"#  c #6E4C32",
"$  c #7C4F33",
"%  c #724E34",
"&  c #63503B",
"*  c #7B5235",
"=  c #725D3F",
"-  c #7A5538",
";  c #67492D",
":  c #3D5E5E",
">  c #395458",
",  c #3C655C",
"<  c #395A64",
"1  c #2C5C74",
"2  c #275C77",
"3  c #1F607B",
"4  c #396467",
"5  c #2E726E",
"6  c #3E716C",
"7  c #23637B",
"8  c #266E7F",
"9  c #2B6174",
"0  c #3B7672",
"q  c #377879",
"w  c #2A7378",
"e  c #444C4F",
"r  c #534F49",
"t  c #45564D",
"y  c #49564B",
"u  c #485A4F",
"i  c #43544B",
"p  c #525642",
"a  c #53524B",
"s  c #555A4C",
"d  c #5A5546",
"f  c #544C50",
"g  c #48595A",
"h  c #555554",
"j  c #655542",
"k  c #635A46",
"l  c #6A5D46",
"z  c #675748",
"x  c #7F5C43",
"c  c #715D49",
"v  c #655E52",
"b  c #42645C",
"n  c #4E695C",
"m  c #4B635C",
"M  c #576355",
"N  c #59654D",
"B  c #63644F",
"V  c #6C624F",
"C  c #7A664A",
"Z  c #776549",
"A  c #676C55",
"S  c #7A6352",
"D  c #766954",
"F  c #436C63",
"G  c #476865",
"H  c #42726B",
"J  c #577066",
"K  c #447A72",
"L  c #80492B",
"P  c #80512D",
"I  c #835534",
"U  c #84573A",
"Y  c #84593B",
"T  c #8B5B3C",
"R  c #885A36",
"E  c #945C3C",
"W  c #925F37",
"Q  c #92633C",
"!  c #9A623D",
"~  c #835E45",
"^  c #955F40",
"/  c #856342",
"(  c #8E6444",
")  c #8F664B",
"_  c #8B6A4B",
"`  c #946444",
"'  c #9A6544",
"]  c #9D6C44",
"[  c #9B6C4B",
"{  c #96694B",
"}  c #9C724C",
"|  c #8A6750",
" . c #9C6C51",
".. c #957353",
"X. c #9B7453",
"o. c #9B7859",
"O. c #8B7758",
"+. c #A26E46",
"@. c #A26D4B",
"#. c #A37447",
"$. c #A4734C",
"%. c #AB754E",
"&. c #AC7A4C",
"*. c #B17A4E",
"=. c #A06D52",
"-. c #A67451",
";. c #A87151",
":. c #A57B54",
">. c #AB7B54",
",. c #A47B5A",
"<. c #B27A52",
"1. c #B3814F",
"2. c #AB8154",
"3. c #AE835A",
"4. c #A68A5D",
"5. c #B58554",
"6. c #BB8554",
"7. c #BB8D56",
"8. c #B4855A",
"9. c #B48A5D",
"0. c #BB8D5D",
"q. c #B98858",
"w. c #BE925F",
"e. c #B5905F",
"r. c #A88261",
"t. c #B88D66",
"y. c #B69164",
"u. c #BB9264",
"i. c #BC9069",
"p. c #C4945E",
"a. c #C08F61",
"s. c #C19562",
"d. c #C69766",
"f. c #1C6D8B",
"g. c #0E6D97",
"h. c #0E6E99",
"j. c #156C96",
"k. c #186B96",
"l. c #156C99",
"z. c #186A9A",
"x. c #06779D",
"c. c #0D729B",
"v. c #0B7A9E",
"b. c #157296",
"n. c #13729D",
"m. c #127C9E",
"M. c #197C9E",
"N. c #18729E",
"B. c #157786",
"V. c #256586",
"C. c #277888",
"Z. c #247E95",
"A. c #0C76A1",
"S. c #0B7CA2",
"D. c #0A7DA7",
"F. c #1376A1",
"G. c #137CA4",
"H. c #167DA6",
"J. c #1E828A",
"K. c #12809F",
"L. c #2C8185",
"P. c #2F8588",
"I. c #3D8588",
"U. c #228697",
"Y. c #318590",
"T. c #2C9197",
"R. c #329C9E",
"E. c #35959A",
"W. c #0682A4",
"Q. c #0B82A5",
"!. c #0D84AA",
"~. c #038CAC",
"^. c #0B8BAC",
"/. c #0587A8",
"(. c #1484AA",
"). c #1289AB",
"_. c #1785A5",
"`. c #0994AF",
"'. c #0F99AF",
"]. c #0A8FB1",
"[. c #0496B3",
"{. c #0993B3",
"}. c #039AB5",
"|. c #0B9DB5",
" X c #0C9BB8",
".X c #0699B9",
"XX c #1094B4",
"oX c #139BB3",
"OX c #2B9AA3",
"+X c #2898A7",
"@X c #329AA0",
"#X c #02A2B6",
"$X c #07A5BB",
"%X c #0EAABC",
"&X c #10A5BD",
"*X c #22A1AD",
"=X c #25A7B2",
"-X c #32A2B1",
";X c #408689",
":X c #42999D",
">X c #059FC1",
",X c #06AAC6",
"<X c #0CACC4",
"1X c #0BA7C0",
"2X c #11A3C2",
"3X c #19ABC5",
"4X c #0BB3CC",
"5X c #17B5CA",
"6X c #09B5D2",
"7X c #0BBBD5",
"8X c #15BDD3",
"9X c #23B7C8",
/* pixels */
"                                                                                                ",
"                                                                                                ",
"                                                u.9.3.9.                                        ",
"                              {               p.7.#.&.&.%.,.>.,.,.3.i.                          ",
"                          u.} T $.&.;.,.,.>.5.<.Q T [ [ [ ' %.[ [ #.-.&.7.t.                    ",
"                          p.R I @.] Q { ` -.@.@.~ $ @ T ` U [ [ ` $.T @.%.<.[                   ",
"                      ,.q.<.- X M p ; @ ` [ [ T # . H 0 F o ^ x o B + ` ' ' @.3.                ",
"                    R ` U V H R.OX@X5 i & ( Q * i E.3X%X'.P.: 0 R.J., l Y * #.s.                ",
"                  5.I - m R.%X#X}.}.5X*XI.b n H -X{.W.W.!.|.4X8X$X$X5XI.V @ +.7.s.              ",
"                u.#.( t 9X4X}.].~.{.{.}.,X7X7X,X.X~.^.D.A.A.S.{.~.^.~.<X, $ @.#.&.5.            ",
"                p.I = w %X#X~.D.A.Q.^.[.{.^.Q.A.h.h.j.l.l.l.j.g.j.F.(.2XP.Z ;.` ` %.            ",
"              3.%.+.X =X<X}.].!.S.S.S.Q.S.A.c.h.l.z.l.l.l.z.z.l.j.G.S.D.K.J C U ' @.-.          ",
"              3.' [ , |.~.v.c.c.j.j.j.l.l.l.l.j.z.z.j.j.l.z.z.l.l.l.l.g.D.+XL.M x I &.i.        ",
"            3.>.* n *X|.!.!.H.H.l.l.l.l.l.l.l.l.l.l.l.l.l.l.l.l.l.l.l.l.h./.%X+Xt ' +.8.        ",
"          0.T S K =X$XQ.Q.D.n.l.l.l.l.l.l.l.l.j.l.j.l.l.l.l.l.l.l.l.l.j.c.W.^.#XC.D I +.:.      ",
"        u.6.E t _.S.b.j.j.j.l.l.j.j.l.l.l.l.l.l.l.l.l.z.l.l.l.l.c.S.!.{.].{.$X<X5XH Q -.X.      ",
"          &.@.s f.l.l.l.l.j.l.l.l.l.l.k.k.b.l.l.z.k.k.j.k.z.j.l.l.N.h.c.n.A.h.D. XF [ -.        ",
"          :.$.{ g D.l.l.l.l.l.j.l.l.l.l.l.l.l.l.l.l.l.l.l.l.l.l.l.l.l.l.l.k.z.l.2 D             ",
"            W Q m .XQ.c.l.z.j.l.z.l.l.l.l.l.l.l.l.l.l.l.l.l.l.l.l.l.l.l.j.j.j.f.h o.            ",
"          t.] % 6 1XW.h.l.l.h.j.z.z.l.l.l.j.l.z.l.l.l.l.l.l.l.l.l.l.z.z.n.A.S.8 D t.            ",
"          8.%.l :X<X X].!.H.H.H.n.j.l.l.l.l.l.l.l.l.l.l.l.l.z.l.l.l.j.l.F.F.(.L.A u.            ",
"          -.%.C I.{.D.D.D.h.c.c.l.z.l.l.z.l.l.l.l.l.k.l.z.j.z.l.l.l.j.l.j.l.h.m.u <.a.          ",
"             .[ u c.h.j.l.z.l.l.z.l.l.l.l.j.l.l.l.l.l.l.l.z.j.n.l.l.l.l.j.l.H.Z.B $.+.>.        ",
"              U j C.(.n.l.l.l.l.l.l.l.j.l.l.l.l.l.l.l.l.l.l.l.k.l.l.j.l.l.l.l.7 V #.I u.        ",
"              [ % 4 m.j.l.j.l.z.j.j.l.l.l.l.l.k.l.l.l.l.z.l.l.j.j.j.v.c.D.Q.D.Q.q p / >.3.      ",
"              9.;.f k.l.j.l.l.l.j.l.l.l.l.l.l.n.l.l.l.l.l.l.l.l.l.z.H.H.!.{.'.2X5XT.D Q +.      ",
"            u.#.[ h b.l.l.l.l.l.z.l.z.l.l.j.l.l.z.l.l.l.j.l.l.l.l.l.l.j.h.x.x.W.~.1X0 + $.$.    ",
"            2.R ) m b.k.z.n.l.l.l.l.l.l.l.l.l.l.b.l.l.l.l.l.l.l.l.l.l.j.H.(.(.{.3X6X@Xl $.-.    ",
"              P O B.c.h.j.l.l.j.l.n.j.l.l.l.l.j.l.j.l.l.l.l.l.l.l.l.l.l.j.c.v.A.A./.Y.v @.=.    ",
"              _ F 6X2X!.v.j.h.c.l.z.z.l.l.l.l.z.l.l.l.l.l.l.k.n.l.l.l.l.j.l.j.h.h.D.< x R _     ",
"          p.q.B OX>X|.^.!.(.H.H.n.l.j.l.l.l.j.z.z.n.l.l.z.l.l.l.l.l.l.N.l.l.l.j.G.).< @ `       ",
"        y.&.[ J <X{.W.Q.Q.c.l.z.j.l.l.l.l.l.l.l.l.j.l.l.l.j.l.l.l.l.l.z.l.l.j.j.g.C.d ! ,.      ",
"        e.2.I b oXx.h.l.h.j.l.l.g.l.l.l.l.l.l.l.l.l.j.l.l.l.l.l.l.l.l.j.l.l.l.H.).G ) [ X.      ",
"          9.] d T..XD.l.l.l.z.l.l.l.l.l.l.l.l.l.l.l.l.l.l.l.l.l.l.l.l.l.j.F.H.Q.M.i I `         ",
"              _ G A.N.z.j.j.l.l.j.l.z.l.z.j.j.l.l.l.z.l.l.l.z.l.z.l.z.l.l.l.j.V.a ~ )           ",
"                d V.z.z.j.j.j.z.l.l.z.z.k.l.l.l.z.l.l.j.g.j.l.z.l.l.l.j.k.l.j.1 S <.            ",
"                  v g V.j.l.l.l.l.l.l.l.l.l.l.l.l.l.l.l.l.l.g.l.z.l.l.l.j.v.^.C.O.              ",
"                      A Z.S.l.j.l.l.l.z.l.l.l.l.l.j.l.j.z.z.z.l.l.l.n.F.A.~.'.4 2.s.            ",
"                      4.G m.j.j.l.l.l.l.l.l.j.l.l.z.k.k.l.l.l.l.j.l.N.F.(.).w O $.9.            ",
"                      9.z 7 G.H.).U.V.1 V.l.n.A.f.< r a g Z.F.l.z.l.j.l.9 > C 2.                ",
"                      :.X.v < 9 8 t d S a 4 q : d } 6.5...N i g < 9 > e z * p.0.                ",
"                            ) j Z } ,.>.Q Z = - &.d.        6.<.( j ~ P ' 5.p.                  ",
"                              o.          i.u.y.              d.      ,.q.a.                    ",
"                                                                                                ",
"                                                                                                ",
"                                                                                                ",
"                                                                                                ",
"                                                                                                "
};
