/* XPM */
static char *exit_o1672247209[] = {
/* columns rows colors chars-per-pixel */
"48 48 131 2 ",
"   c None",
".  c #331F1E",
"X  c #3D1F1C",
"o  c #2D211E",
"O  c #36211E",
"+  c #3B221D",
"@  c #2F1F21",
"#  c #321F23",
"$  c #381F23",
"%  c #2F2225",
"&  c #2F232A",
"*  c #322225",
"=  c #3C2422",
"-  c #3E2824",
";  c #312228",
":  c #382528",
">  c #44261C",
",  c #49261B",
"<  c #46281E",
"1  c #4C2A1C",
"2  c #522C1C",
"3  c #582F1A",
"4  c #56311F",
"5  c #5C331E",
"6  c #62351D",
"7  c #66381F",
"8  c #6B3C1E",
"9  c #412621",
"0  c #442A23",
"q  c #4A2C23",
"w  c #452E2A",
"e  c #4D2F2A",
"r  c #532E22",
"t  c #5A2F21",
"y  c #4F3124",
"u  c #543223",
"i  c #5C3424",
"p  c #5E3824",
"a  c #553529",
"s  c #59362B",
"d  c #55392D",
"f  c #5F3E2C",
"g  c #5A3B30",
"h  c #623621",
"j  c #643A23",
"k  c #6A3D25",
"l  c #633D2B",
"z  c #6B3F28",
"x  c #6D4126",
"c  c #6D432B",
"v  c #6F492D",
"b  c #704126",
"n  c #72452C",
"m  c #74492D",
"M  c #7A4B2D",
"N  c #644131",
"B  c #6B4634",
"V  c #6D4833",
"C  c #6E4938",
"Z  c #744731",
"A  c #754B32",
"S  c #7A4C32",
"D  c #7D4E38",
"F  c #7D5234",
"G  c #7F543A",
"H  c #7A593D",
"J  c #7E5340",
"K  c #81542F",
"L  c #804F32",
"P  c #815434",
"I  c #845934",
"U  c #83553A",
"Y  c #88573D",
"T  c #84593B",
"R  c #8A5B3C",
"E  c #856135",
"W  c #8D633E",
"Q  c #996336",
"!  c #92623E",
"~  c #9A663E",
"^  c #A36E3F",
"/  c #865B41",
"(  c #8B5E43",
")  c #8D6143",
"_  c #936445",
"`  c #996642",
"'  c #946A44",
"]  c #9D6C45",
"[  c #96674A",
"{  c #996748",
"}  c #956D4A",
"|  c #9B6C4B",
" . c #9D7045",
".. c #9E714C",
"X. c #9E6C51",
"o. c #957054",
"O. c #9F7351",
"+. c #9F7855",
"@. c #9B785A",
"#. c #A16F45",
"$. c #A26C49",
"%. c #A37245",
"&. c #A4734C",
"*. c #AA734C",
"=. c #AD7B4D",
"-. c #A47452",
";. c #AD7652",
":. c #A57A52",
">. c #AB7D52",
",. c #AA7D5C",
"<. c #B7854F",
"1. c #AD8154",
"2. c #AD825B",
"3. c #B48354",
"4. c #BA8752",
"5. c #B78954",
"6. c #BC8955",
"7. c #B48558",
"8. c #B68B5A",
"9. c #BB8E5C",
"0. c #BB915D",
"q. c #AE8660",
"w. c #AE8A64",
"e. c #B68D62",
"r. c #B98E65",
"t. c #BC9363",
"y. c #BD9569",
"u. c #C28F58",
"i. c #C2935C",
"p. c #C29463",
"a. c #C19A77",
/* pixels */
"                                                                                                ",
"                                                                                                ",
"                                                                                                ",
"                                                t.7.=.3.>.>.                                    ",
"                              } } 1.2.        p.6.Q ] &.$.&.&.&.#.&.3.>.y.                      ",
"                          0.9.F [ ;.$.-.` &.=.=.*.S ) ( | ) ' ..| | #.~ =.4.,.                  ",
"                          9.&.A U [ S _ U ] ] | U S m A T D ) | R _ ( P &.*.$.}                 ",
"                      _ #.&.) A S S A A S { | | M m A A A A F U n M A U ( ) R 3.                ",
"                    ..F U S Z n v z m Z Z F U U A m n 7 c A z V z z x m G R P 6.i.              ",
"                  9.] F A A M 7 A j n z c m z Z x x c 6 j z 2 x z j 6 n c A I *.6.u.            ",
"                y.7.( U A j x k z p k h j m 6 n j 4 l 6 j 5 r j 2 6 j k k A ' &.' *.>.          ",
"                5.%.m S A z 6 h 6 2 i 2 6 z h h i + q h 6 5 > i > h r 6 k G X.| I -.#.          ",
"                %.&._ n k k p 5 6 r 2 > h h 2 h i $ - , 5 u + u + y , j n M U G P [ $.>.        ",
"              t.] _ / n h b h > 5 r X 9 a 2 0 r i $ : X a > = 0 + = < 7 j j c c M F [ 3.        ",
"            1.$.` n m n , 5 i O e u . + e + = q 1 * * * w - : 0 * * O i < 4 j c k R | ~ 2.      ",
"          i.^ P M h x h 0 0 q . = e O * 9 * * 0 0 * * # # : * * * ; O y * > i 5 Z m P ! -.      ",
"          4.*.T z 6 j < O * * O # $ * : * % * * = * : * * * * * * * ; * * * X l n j U -.&.      ",
"            =.| U j u 9 * * * * * : * # & * * * * * % % * * * * % * * * * * 1 k 8 m ]           ",
"            ' ' _ z , + # * * * ; * * * * * * * * * * * * * * * * * * ; * * u 6 6 K             ",
"            >.P Y V i + * ; * * * ; * * * % * * * * * % * * * * * * * # $ = s 1 c #.            ",
"          e.5._ n n i - * * * * * * * * * * ; * % * * * * % % : * * * : * + 9 y F 7.            ",
"            &.:.n 6 s X * * * * ; * * * ; * * * * * * * * * * * * * % * = * + N m -.i.          ",
"            O.&.T 2 e 0 % * * * * * * % * % * * * * : * * * * * * * * * * # a c c W =.7.        ",
"              { _ c > 0 & * * * * * * * * * * * % % % % ; * * * * * * ; # = i k F -.{  .t.      ",
"                F V > . * * * * ; * : % * * % * : * * % : * * * * * % * * < 5 x m _ P { 9.      ",
"                &.G u * * * * O * * * % * : % % * * * & * * % * * * ; * O 4 6 c 6 m M -.` 2.    ",
"              r.;.{ l = * * * * & % % * * * * * * * % * : % * * * * * * * u 2 h z c b / R >.    ",
"              >.[ R Z 2 # * * * * * * * * * * * * * * * * % * * * * & : * q > q z 6 x n ! =.    ",
"              E I m b 3 * & * * * * * * * * * * : % ; * * * * * * * * * * * * < p 6 k z ..&.O.  ",
"                F c z p 0 * ; * * * * * : % * * * % * % * * * % * * * * * O $ r h 6 k F ' _     ",
"            i.7.D z 5 u 0 * % * * * * * * % * * * * * * * * * * * * * ; * * = d 2 h m P T )     ",
"          9.3.#.n z 5 + + * % O & : % ; & * * * * * * * * : % % * * % & ; + + 0 , n M n )       ",
"          7.' W c j h > . * * * * % * * * * * * * * * * ; * * * * * & % * * * + i c G [ &.      ",
"          r.&.m A 8 6 u * * $ * % * * * * * * * * & * * * * * * * * * * * ; ; 0 h 6 R ) |       ",
"            2.| D x 6 p = * * * * * * * * ; * * * * * * : * * * * * * * * ; + l c A M )         ",
"                ) j 6 5 0 % $ $ & * * ; ; ; * ; ; * * * # * * * * * O * ; * 0 j S | &.          ",
"                  P x t O * * * : # ; * * * * * * ; * * ; * * * * * ; * * * , 5 M 2.            ",
"                    _ G + ; * * * % * * * * O * * # * * * * # * * * ; # * = i 5 I y.            ",
"                      a.H o * o * % * * * * * % * * # * # * * * * * * * ; O 2 c W 9.            ",
"                      t.&.0 @ * * * * # # * * * ; # = + 9 * # * % * * * * + s G W 2.            ",
"                      q.-.U q # % O d f g - * * 0 l ) } o.B u 0 = + o + y B ) p.e.              ",
"                          ,._ l d v F &.| V f N A >.i.t.q.+..._ ) B f C J ) <.0.                ",
"                              X.! t.    :.:.=.&.1.t.          i.2.o.@.' ~ 3.0.                  ",
"                                                                        t.e.                    ",
"                                                                                                ",
"                                                                                                ",
"                                                                                                ",
"                                                                                                "
};
