/* XPM */
static char *_c61e387cecb4f54d6ddff2f8ae088e2jGp8daIQ8JqCUSFu[] = {
/* columns rows colors chars-per-pixel */
"48 48 6 1 ",
"  c None",
". c #14182E",
"X c #AD2F45",
"o c #F0B541",
"O c #FFEE83",
"+ c #F5FFE8",
/* pixels */
"                                                ",
"                                                ",
"                                                ",
"      ......                        ......      ",
"      ......                        ......      ",
"      ......                        ......      ",
"   ...OOO..............................OOO...   ",
"   ...OOO..............................OOO...   ",
"   ...OOO..............................OOO...   ",
"   ...OOO.........+++......+++.........OOO...   ",
"   ...OOO.........+++......+++.........OOO...   ",
"   ...OOO.........+++......+++.........OOO...   ",
"   ...OOOOOOOOOoooOOO......OOOoooOOOOOOOOO...   ",
"   ...OOOOOOOOOoooOOO......OOOoooOOOOOOOOO...   ",
"   ...OOOOOOOOOoooOOO......OOOoooOOOOOOOOO...   ",
"   ..................OOOOOO..................   ",
"   ..................OOOOOO..................   ",
"   ..................OOOOOO..................   ",
"   ..........................................   ",
"   ..........................................   ",
"   ..........................................   ",
"   ...ooo..............................ooo...   ",
"   ...ooo..............................ooo...   ",
"   ...ooo..............................ooo...   ",
"   ...ooo..............................ooo...   ",
"   ...ooo..............................ooo...   ",
"   ...ooo..............................ooo...   ",
"   ...ooo..............................ooo...   ",
"   ...ooo..............................ooo...   ",
"   ...ooo..............................ooo...   ",
"   ...ooo..............................ooo...   ",
"   ...ooo..............................ooo...   ",
"   ...ooo..............................ooo...   ",
"   ...OOO...XXXXXXXXXXXXXXXXXXXXXXXX...OOO...   ",
"   ...OOO...XXXXXXXXXXXXXXXXXXXXXXXX...OOO...   ",
"   ...OOO...XXXXXXXXXXXXXXXXXXXXXXXX...OOO...   ",
"   ...OOO...XXXXXXXXXXXXXXXXXXXXXXXX...OOO...   ",
"   ...OOO...XXXXXXXXXXXXXXXXXXXXXXXX...OOO...   ",
"   ...OOO...XXXXXXXXXXXXXXXXXXXXXXXX...OOO...   ",
"   ...OOO..............................OOO...   ",
"   ...OOO..............................OOO...   ",
"   ...OOO..............................OOO...   ",
"   ...OOOOOOOOOOOOOOOOOOOOOOOOOOOOOOOOOOOO...   ",
"   ...OOOOOOOOOOOOOOOOOOOOOOOOOOOOOOOOOOOO...   ",
"   ...OOOOOOOOOOOOOOOOOOOOOOOOOOOOOOOOOOOO...   ",
"   ...ooo..............................ooo...   ",
"   ...ooo..............................ooo...   ",
"   ...ooo..............................ooo...   "
};
