/* XPM */
static char * coin_1_xpm[] = {
"16 16 22 1",
" 	c None",
".	c #E3D958",
"+	c #868234",
"@	c #FAF651",
"#	c #FAF652",
"$	c #878038",
"%	c #858332",
"&	c #F9F94F",
"*	c #868333",
"=	c #858231",
"-	c #FAF94E",
";	c #F9F84E",
">	c #847B30",
",	c #E5DC3B",
"'	c #837B2F",
")	c #857634",
"!	c #E4C835",
"~	c #867634",
"{	c #877836",
"]	c #F1D546",
"^	c #887837",
"/	c #DACB45",
"                ",
"                ",
"       ..       ",
"      +@#$      ",
"      %&&*      ",
"      =-;=      ",
"      >,,'      ",
"      )!!~      ",
"      {]]^      ",
"       //       ",
"                ",
"                ",
"                ",
"                ",
"                ",
"                "};
