/* XPM */
static char * coin_8_xpm[] = {
"16 16 29 1",
" 	c None",
".	c #E7DA55",
"+	c #E9DA50",
"@	c #D7D65D",
"#	c #FDFA48",
"$	c #FBF74A",
"%	c #908939",
"&	c #C8C74F",
"*	c #FEFD45",
"=	c #FAF849",
"-	c #7E7736",
";	c #CBC755",
">	c #FEFC47",
",	c #EAE033",
"'	c #A09443",
")	c #BDB543",
"!	c #FCF746",
"~	c #E8E134",
"{	c #C6C153",
"]	c #B6A739",
"^	c #E9CF2D",
"/	c #E4C820",
"(	c #BDB140",
"_	c #C0AE52",
":	c #F5DA43",
"<	c #EACC28",
"[	c #B6A533",
"}	c #CFC144",
"|	c #D5C433",
"                ",
"                ",
"       .+       ",
"      @#$%      ",
"      &*=-      ",
"      ;>,'      ",
"      )!~{      ",
"      ]^/(      ",
"      _:<[      ",
"       }|       ",
"                ",
"                ",
"                ",
"                ",
"                ",
"                "};
