/* XPM */
static char * coin_4_xpm[] = {
"16 16 50 1",
" 	c None",
".	c #BDAE5A",
"+	c #BDAD4A",
"@	c #BDAC4A",
"#	c #EFD94F",
"$	c #F1DB43",
"%	c #EEDD44",
"&	c #EDD851",
"*	c #F1D951",
"=	c #F6D83B",
"-	c #F5DE35",
";	c #FAF23D",
">	c #F8E43B",
",	c #E9D143",
"'	c #DAC550",
")	c #EDD438",
"!	c #EFD72E",
"~	c #FAF537",
"{	c #FEFE3D",
"]	c #FEF73C",
"^	c #E4C81E",
"/	c #C7AC29",
"(	c #EBD74E",
"_	c #E5CF2C",
":	c #F9F33D",
"<	c #FFFE3E",
"[	c #FDFC3F",
"}	c #F5E735",
"|	c #EED32B",
"1	c #D8B824",
"2	c #DAC859",
"3	c #CDC04A",
"4	c #F1EC37",
"5	c #FEFA42",
"6	c #F6E63A",
"7	c #EDD62E",
"8	c #F3D937",
"9	c #C9AE2B",
"0	c #FCF85A",
"a	c #F1E838",
"b	c #EFDF2F",
"c	c #E8CF24",
"d	c #EFD531",
"e	c #EED84B",
"f	c #F1E056",
"g	c #EDDB44",
"h	c #F1DA44",
"i	c #EFD84D",
"j	c #BAB159",
"k	c #C9BD5D",
"      .+@       ",
"      #$%&      ",
"     *=-;>,     ",
"    ')!~{]^/    ",
"    (_:<[}|1    ",
"    23456789    ",
"     0abcde     ",
"      fghi      ",
"       jk       ",
"                ",
"                ",
"                ",
"                ",
"                ",
"                ",
"                "};
