/* XPM */
static char * coin_3_xpm[] = {
"16 16 47 1",
" 	c None",
".	c #D6C640",
"+	c #F5E22D",
"@	c #E1D131",
"#	c #D3BA28",
"$	c #DDBE11",
"%	c #E8CB05",
"&	c #FDE50F",
"*	c #F8E627",
"=	c #B6A539",
"-	c #C5AC22",
";	c #CDAE15",
">	c #E0BC09",
",	c #EBC903",
"'	c #FDE70F",
")	c #E0D231",
"!	c #AE9C37",
"~	c #B39E2B",
"{	c #D8BA10",
"]	c #DDBE05",
"^	c #DEC003",
"/	c #ECD611",
"(	c #F3EC46",
"_	c #CCC666",
":	c #AE9A43",
"<	c #C4A92F",
"[	c #CCAF14",
"}	c #DCBE07",
"|	c #DBC406",
"1	c #F3EF31",
"2	c #FFFC47",
"3	c #CCC358",
"4	c #C4AD28",
"5	c #D8BE0B",
"6	c #D9C009",
"7	c #F2EB35",
"8	c #FFFC3D",
"9	c #F3EC38",
"0	c #BBAC3B",
"a	c #D9BF25",
"b	c #DDD242",
"c	c #E9E449",
"d	c #F3EB3D",
"e	c #D6BC2C",
"f	c #E5E55B",
"g	c #EFE94F",
"h	c #BBAF35",
"                ",
"      .+@       ",
"     #$%&*      ",
"    =-;>,')     ",
"    !~{]^/(_    ",
"    :<[}|123    ",
"     4567890    ",
"      abcde     ",
"       fgh      ",
"                ",
"                ",
"                ",
"                ",
"                ",
"                ",
"                "};
