/* XPM */
static char * coin_2_xpm[] = {
"16 16 40 1",
" 	c None",
".	c #CABD54",
"+	c #CBC05D",
"@	c #FAF762",
"#	c #EFE23F",
"$	c #F4EC4C",
"%	c #D7D15A",
"&	c #C4C55A",
"*	c #E7E550",
"=	c #FEFC3E",
"-	c #FEFD3D",
";	c #F8F954",
">	c #C3BF58",
",	c #CEC94E",
"'	c #FEFE44",
")	c #FEFC39",
"!	c #FAF64D",
"~	c #8E8636",
"{	c #D2D066",
"]	c #DCD947",
"^	c #FDFB42",
"/	c #ECDA2B",
"(	c #E6D02D",
"_	c #C1B249",
":	c #F7F657",
"<	c #FFFB3E",
"[	c #EDE029",
"}	c #DBBD0F",
"|	c #B19B2A",
"1	c #E4E45A",
"2	c #F5F336",
"3	c #EDE128",
"4	c #DABE0E",
"5	c #B29C27",
"6	c #CAC75E",
"7	c #FAF854",
"8	c #E1D026",
"9	c #D1BD26",
"0	c #D8D66B",
"a	c #AAA13C",
"                ",
"       .+       ",
"      @#$%      ",
"     &*=-;      ",
"     >,')!~     ",
"     {]^/(_     ",
"      :<[}|     ",
"      12345     ",
"      6789      ",
"       0a       ",
"                ",
"                ",
"                ",
"                ",
"                ",
"                "};
