/* XPM */
static char * coin_5_xpm[] = {
"16 16 56 1",
" 	c None",
".	c #BEAC4A",
"+	c #BEAC4D",
"@	c #D0C053",
"#	c #EBD94C",
"$	c #F2DC3D",
"%	c #F1DB3D",
"&	c #ECD748",
"*	c #C9B542",
"=	c #D0BF54",
"-	c #EAD63F",
";	c #F4EE3A",
">	c #FDF83B",
",	c #E7D11E",
"'	c #E1BE0C",
")	c #E1C523",
"!	c #BAA734",
"~	c #D7CB48",
"{	c #F4ED39",
"]	c #FDFC3C",
"^	c #E3D61E",
"/	c #DCBF03",
"(	c #DFBD03",
"_	c #DCBE09",
":	c #C6AC23",
"<	c #F0E94D",
"[	c #FDF942",
"}	c #E4D523",
"|	c #DEBE03",
"1	c #DDBE03",
"2	c #DEBE04",
"3	c #D7B823",
"4	c #E5E052",
"5	c #E3D324",
"6	c #D8BF09",
"7	c #E0BC0A",
"8	c #DFBE03",
"9	c #E1BD03",
"0	c #E0BB07",
"a	c #CAAC28",
"b	c #B0A037",
"c	c #D6B921",
"d	c #B99E1D",
"e	c #CBAE13",
"f	c #DEBE08",
"g	c #E0BC03",
"h	c #D8BB1A",
"i	c #B19A31",
"j	c #BFA735",
"k	c #D5B723",
"l	c #D6BD13",
"m	c #D9BD11",
"n	c #D7B920",
"o	c #BFAA2F",
"p	c #B3A933",
"q	c #B2A831",
"       .+       ",
"     @#$%&*     ",
"    =-;>,')!    ",
"    ~{]^/(_:    ",
"    <[}||123    ",
"    4567890a    ",
"    bcdefghi    ",
"     jklmno     ",
"       pq       ",
"                ",
"                ",
"                ",
"                ",
"                ",
"                ",
"                "};
