/* XPM */
static char * coin_6_xpm[] = {
"16 16 53 1",
" 	c None",
".	c #CFBD55",
"+	c #D9C648",
"@	c #EED54E",
"#	c #EBD75C",
"$	c #EDD85B",
"%	c #F4D844",
"&	c #F1D42D",
"*	c #E6C51A",
"=	c #DBBE1B",
"-	c #D5BD2B",
";	c #CBC055",
">	c #F3DA43",
",	c #E4C61D",
"'	c #DEC006",
")	c #DEBD05",
"!	c #CCB00D",
"~	c #D8B918",
"{	c #D4B832",
"]	c #E6DF54",
"^	c #EFDE34",
"/	c #DDBE04",
"(	c #DEBD03",
"_	c #DEBE03",
":	c #D8BA0C",
"<	c #B89F20",
"[	c #D3B827",
"}	c #F9F557",
"|	c #E4D221",
"1	c #DDBE05",
"2	c #DDBD03",
"3	c #DEBD04",
"4	c #D7BA12",
"5	c #B6A127",
"6	c #C3AD2F",
"7	c #DED55E",
"8	c #D8BF1F",
"9	c #CEB00E",
"0	c #D9BB0B",
"a	c #DBBB10",
"b	c #C3A828",
"c	c #DAC031",
"d	c #B19C3C",
"e	c #BDA930",
"f	c #D6B91F",
"g	c #B89E1E",
"h	c #CFB627",
"i	c #D9BB20",
"j	c #D2BA35",
"k	c #BDA735",
"l	c #D2B927",
"m	c #C1AE2C",
"n	c #B19C31",
"                ",
"      .+@#      ",
"     $%&*=-     ",
"    ;>,')!~{    ",
"    ]^/(_:<[    ",
"    }|123456    ",
"    7890abcd    ",
"     efghij     ",
"      klmn      ",
"                ",
"                ",
"                ",
"                ",
"                ",
"                ",
"                "};
