/* XPM */
static char * coin_7_xpm[] = {
"16 16 44 1",
" 	c None",
".	c #CCBF55",
"+	c #CEBD53",
"@	c #FAF766",
"#	c #F5EC47",
"$	c #EDDD3F",
"%	c #DAC132",
"&	c #BCA734",
"*	c #C9C862",
"=	c #FAFB4D",
"-	c #FDFB3C",
";	c #E3CF24",
">	c #B99F1D",
",	c #CFB828",
"'	c #D0C656",
")	c #FEFC49",
"!	c #EBE42C",
"~	c #DBC008",
"{	c #B89E1E",
"]	c #D2B722",
"^	c #82742F",
"/	c #EED550",
"(	c #F8EB38",
"_	c #E3D31B",
":	c #DBBD04",
"<	c #E9D12B",
"[	c #D5BB24",
"}	c #847731",
"|	c #E5CA37",
"1	c #EFD526",
"2	c #DDBF07",
"3	c #DBBE0F",
"4	c #F2E93A",
"5	c #B1A32C",
"6	c #EED650",
"7	c #F4D937",
"8	c #DCBC12",
"9	c #C2AB29",
"0	c #DDCE2F",
"a	c #DFCB3B",
"b	c #D8BC1A",
"c	c #D4BB22",
"d	c #BAA834",
"e	c #AD9B3E",
"                ",
"       .+       ",
"      @#$%&     ",
"     *=-;>,     ",
"     ')!~{]^    ",
"     /(_:<[     ",
"    }|12345     ",
"     67890      ",
"      abcd      ",
"       e        ",
"                ",
"                ",
"                ",
"                ",
"                ",
"                "};
