/* XPM */
static char * grass_xpm[] = {
"16 16 118 2",
"  	c #8AAD1C",
". 	c #84A223",
"+ 	c #87A621",
"@ 	c #8BAF1A",
"# 	c #8BAD1C",
"$ 	c #8BAD1D",
"% 	c #90B613",
"& 	c #91B222",
"* 	c #8DAF1D",
"= 	c #8AAA21",
"- 	c #87A721",
"; 	c #95B71D",
"> 	c #89AB1F",
", 	c #8AAD1B",
"' 	c #86A621",
") 	c #83A024",
"! 	c #8CB019",
"~ 	c #88A81F",
"{ 	c #8CB119",
"] 	c #8DB11A",
"^ 	c #8DB218",
"/ 	c #8CB01A",
"( 	c #95B71E",
"_ 	c #87A622",
": 	c #97BA1C",
"< 	c #8EAF1F",
"[ 	c #8AAD1D",
"} 	c #88A91F",
"| 	c #88A820",
"1 	c #8DB119",
"2 	c #8EB218",
"3 	c #87A820",
"4 	c #89AA1D",
"5 	c #8BAE1C",
"6 	c #90B519",
"7 	c #88A821",
"8 	c #8CAF1A",
"9 	c #8CAF1B",
"0 	c #8AAC1D",
"a 	c #90B615",
"b 	c #86A523",
"c 	c #8FB416",
"d 	c #89AB1E",
"e 	c #86A620",
"f 	c #8BAE1B",
"g 	c #8DB019",
"h 	c #89AA1F",
"i 	c #89A922",
"j 	c #88A91E",
"k 	c #86A622",
"l 	c #87A81F",
"m 	c #8BAD1B",
"n 	c #8AAC1E",
"o 	c #88A920",
"p 	c #85A323",
"q 	c #89AA20",
"r 	c #88AA1D",
"s 	c #8DB219",
"t 	c #85A422",
"u 	c #88AA1E",
"v 	c #8BAE1D",
"w 	c #90B120",
"x 	c #89AA1E",
"y 	c #83A124",
"z 	c #8CAF19",
"A 	c #86A522",
"B 	c #90B21F",
"C 	c #8EB219",
"D 	c #86A521",
"E 	c #8CB01B",
"F 	c #8FB419",
"G 	c #8DAE21",
"H 	c #8DB01A",
"I 	c #84A224",
"J 	c #8DAF1E",
"K 	c #8EB317",
"L 	c #8AAC1C",
"M 	c #89AB1D",
"N 	c #8AAB1E",
"O 	c #8AAB1F",
"P 	c #8EB318",
"Q 	c #8DB11B",
"R 	c #87A71F",
"S 	c #87A720",
"T 	c #92B320",
"U 	c #90B616",
"V 	c #85A423",
"W 	c #8CAC21",
"X 	c #90B022",
"Y 	c #8DB11C",
"Z 	c #8EB11D",
"` 	c #88A81E",
" .	c #93B51E",
"..	c #8EB11B",
"+.	c #89A921",
"@.	c #8BAC1D",
"#.	c #8EB417",
"$.	c #8DB118",
"%.	c #96BB1A",
"&.	c #8FB020",
"*.	c #8BAC20",
"=.	c #94B521",
"-.	c #93B818",
";.	c #8CAC20",
">.	c #8BAD1E",
",.	c #94B422",
"'.	c #94B61F",
").	c #8CAF1C",
"!.	c #8EB31A",
"~.	c #8BAF1B",
"{.	c #91B221",
"].	c #8CAE1C",
"^.	c #8CAD1F",
"/.	c #8DB317",
"(.	c #95B81D",
"_.	c #87A523",
":.	c #98BB1D",
"<.	c #8DAE1F",
"  . + @ # $ % & * = - ; > , ' ) ",
"! $ ~ { ] ^ / ( _ : $ < [ } ^ | ",
"1 2 3 4 5 # ' 6 7 ( } 8 9 0 a b ",
"c 8 + d e f . g h i j / 1 ^ 9 k ",
"l m n } o 1 p n 4 $ q r 5 0 e s ",
"n t $ * u ~ 0 d v a w x e 0 y z ",
"v A B C D x 1 E s F G t } H I J ",
"0 $ | K v o L 8 8 M N t O u x > ",
"  P / P Q x R S L . ! O T x 1 f ",
"5 5 s ] U ' S - C V } @ W } # H ",
"1 A ^ 7 F $ X x L 5 - ^ Y Z + # ",
"` + x  .q ..X +.@.#.5 $.%.W S A ",
"- - 5 &._ } *.=.# 8 ] ..-.;.. 0 ",
"$ . x o >.} #.,.1 A # '.).!.y D ",
"m I - 9 ~.[ % {.].^.3 ( N   + y ",
"/ ~.~ E 1 /.f (._.:.# <.$ u #.| "};
